<svg data-v-423bf9ae="" xmlns="http://www.w3.org/2000/svg" viewBox="0 0 308 90" class="iconLeft"><!----><!----><!----><g data-v-423bf9ae="" id="1375c109-7f64-40ac-9e1e-db46a47be52d" fill="white" transform="matrix(5.128204793802585,0,0,5.128204793802585,104.20512894951311,8.02564271837111)"><path d="M3.09 6.55L3.09 8.95L6.64 8.95L6.64 10.50L1.13 10.50L1.13 1.36L6.64 1.36L6.34 2.91L3.09 2.91L3.09 5.00L6.34 5.00L6.34 6.55L3.09 6.55ZM12.73 3.12L12.73 3.12L12.73 3.12Q13.37 3.12 13.83 3.34L13.83 3.34L13.83 3.34Q14.29 3.56 14.60 3.93L14.60 3.93L14.60 3.93Q14.90 4.31 15.04 4.83L15.04 4.83L15.04 4.83Q15.18 5.35 15.18 5.95L15.18 5.95L15.18 10.50L13.30 10.50L13.30 6.58L13.30 6.58Q13.30 5.54 13.02 5.05L13.02 5.05L13.02 5.05Q12.74 4.56 12.05 4.56L12.05 4.56L12.05 4.56Q11.23 4.56 10.83 5.25L10.83 5.25L10.83 5.25Q10.43 5.94 10.43 7.06L10.43 7.06L10.43 10.50L8.55 10.50L8.55 3.29L9.95 3.29L10.33 4.27L10.33 4.27Q10.47 4.12 10.64 3.91L10.64 3.91L10.64 3.91Q10.81 3.71 11.07 3.54L11.07 3.54L11.07 3.54Q11.33 3.36 11.73 3.24L11.73 3.24L11.73 3.24Q12.12 3.12 12.73 3.12ZM21.07 10.65L21.07 10.65L21.07 10.65Q20.52 10.65 20.12 10.49L20.12 10.49L20.12 10.49Q19.71 10.32 19.43 10.11L19.43 10.11L19.43 10.11Q19.11 9.87 18.87 9.56L18.87 9.56L18.87 12.22L17.00 12.22L17.00 3.29L18.45 3.29L18.82 4.24L18.82 4.24Q19.03 3.93 19.35 3.68L19.35 3.68L19.35 3.68Q19.63 3.47 20.05 3.30L20.05 3.30L20.05 3.30Q20.47 3.12 21.07 3.12L21.07 3.12L21.07 3.12Q21.90 3.12 22.47 3.42L22.47 3.42L22.47 3.42Q23.04 3.72 23.40 4.23L23.40 4.23L23.40 4.23Q23.76 4.73 23.92 5.41L23.92 5.41L23.92 5.41Q24.08 6.09 24.08 6.85L24.08 6.85L24.08 6.85Q24.08 7.60 23.92 8.29L23.92 8.29L23.92 8.29Q23.76 8.99 23.40 9.51L23.40 9.51L23.40 9.51Q23.04 10.04 22.47 10.35L22.47 10.35L22.47 10.35Q21.90 10.65 21.07 10.65ZM20.48 4.59L20.48 4.59L20.48 4.59Q19.81 4.59 19.34 5.14L19.34 5.14L19.34 5.14Q18.87 5.68 18.87 6.85L18.87 6.85L18.87 6.85Q18.87 7.99 19.34 8.60L19.34 8.60L19.34 8.60Q19.81 9.20 20.48 9.20L20.48 9.20L20.48 9.20Q20.82 9.20 21.11 9.04L21.11 9.04L21.11 9.04Q21.41 8.89 21.62 8.60L21.62 8.60L21.62 8.60Q21.84 8.30 21.97 7.86L21.97 7.86L21.97 7.86Q22.11 7.42 22.11 6.85L22.11 6.85L22.11 6.85Q22.11 6.27 21.97 5.84L21.97 5.84L21.97 5.84Q21.84 5.42 21.62 5.14L21.62 5.14L21.62 5.14Q21.41 4.86 21.11 4.72L21.11 4.72L21.11 4.72Q20.82 4.59 20.48 4.59ZM28.27 3.12L28.27 3.12L28.27 3.12Q28.73 3.12 29.26 3.27L29.26 3.27L29.26 3.27Q29.79 3.42 30.25 3.75L30.25 3.75L30.25 3.75Q30.72 4.07 31.01 4.59L31.01 4.59L31.01 4.59Q31.30 5.11 31.29 5.85L31.29 5.85L31.29 10.50L29.92 10.50L29.92 10.50Q29.92 10.50 29.88 10.33L29.88 10.33L29.88 10.33Q29.83 10.16 29.79 9.95L29.79 9.95L29.79 9.95Q29.74 9.74 29.69 9.58L29.69 9.58L29.69 9.58Q29.65 9.42 29.65 9.44L29.65 9.44L29.65 9.44Q29.46 9.79 29.13 10.05L29.13 10.05L29.13 10.05Q28.85 10.29 28.41 10.47L28.41 10.47L28.41 10.47Q27.97 10.65 27.33 10.65L27.33 10.65L27.33 10.65Q26.88 10.65 26.45 10.52L26.45 10.52L26.45 10.52Q26.01 10.39 25.67 10.13L25.67 10.13L25.67 10.13Q25.33 9.87 25.11 9.48L25.11 9.48L25.11 9.48Q24.89 9.09 24.88 8.57L24.88 8.57L24.88 8.57Q24.85 8.02 25.03 7.59L25.03 7.59L25.03 7.59Q25.20 7.17 25.53 6.86L25.53 6.86L25.53 6.86Q25.86 6.55 26.32 6.36L26.32 6.36L26.32 6.36Q26.78 6.17 27.33 6.10L27.33 6.10L27.33 6.10Q27.85 6.03 28.46 6.03L28.46 6.03L28.46 6.03Q29.08 6.03 29.57 6.06L29.57 6.06L29.57 5.84L29.57 5.84Q29.57 5.24 29.30 4.93L29.30 4.93L29.30 4.93Q29.04 4.63 28.64 4.54L28.64 4.54L28.64 4.54Q28.24 4.45 27.76 4.52L27.76 4.52L27.76 4.52Q27.29 4.59 26.85 4.72L26.85 4.72L26.85 4.72Q26.42 4.86 26.09 5.00L26.09 5.00L26.09 5.00Q25.76 5.15 25.68 5.22L25.68 5.22L25.68 3.81L25.68 3.81Q25.69 3.79 25.93 3.69L25.93 3.69L25.93 3.69Q26.17 3.58 26.53 3.46L26.53 3.46L26.53 3.46Q26.89 3.33 27.35 3.23L27.35 3.23L27.35 3.23Q27.80 3.12 28.27 3.12ZM29.16 8.68L29.16 8.68L29.16 8.68Q29.40 8.37 29.48 7.99L29.48 7.99L29.48 7.99Q29.55 7.62 29.55 7.20L29.55 7.20L28.74 7.20L28.74 7.20Q28.42 7.20 28.06 7.24L28.06 7.24L28.06 7.24Q27.69 7.28 27.38 7.41L27.38 7.41L27.38 7.41Q27.08 7.53 26.87 7.78L26.87 7.78L26.87 7.78Q26.66 8.02 26.66 8.44L26.66 8.44L26.66 8.44Q26.66 8.90 27.00 9.11L27.00 9.11L27.00 9.11Q27.34 9.32 27.85 9.32L27.85 9.32L27.85 9.32Q28.28 9.32 28.61 9.15L28.61 9.15L28.61 9.15Q28.94 8.97 29.16 8.68ZM37.66 3.29L39.72 3.29L37.00 10.32L37.00 10.32Q36.99 10.35 36.90 10.56L36.90 10.56L36.90 10.56Q36.82 10.78 36.64 11.09L36.64 11.09L36.64 11.09Q36.46 11.40 36.18 11.74L36.18 11.74L36.18 11.74Q35.90 12.08 35.50 12.38L35.50 12.38L35.50 12.38Q35.10 12.67 34.57 12.87L34.57 12.87L34.57 12.87Q34.05 13.06 33.39 13.06L33.39 13.06L33.39 11.45L33.39 11.45Q33.80 11.45 34.09 11.28L34.09 11.28L34.09 11.28Q34.38 11.10 34.58 10.89L34.58 10.89L34.58 10.89Q34.80 10.64 34.96 10.32L34.96 10.32L32.23 3.29L34.30 3.29L36.06 8.54L37.66 3.29Z"></path></g><!----><g data-v-423bf9ae="" id="b9a5136c-0cb0-412d-b722-62c0bf18a4f4" transform="matrix(2.8125,0,0,2.8125,0,0)" stroke="none" fill="white"><path d="M9.571 20.464l8.064 4.47 8.065-4.47v-8.939l-8.065-4.469-8.064 4.469z"></path><path d="M32 0H0v32h32l-5.054-5.172H5.054V5.172h21.892z"></path></g><!----></svg>