<svg width="1442" height="316" viewBox="0 0 1442 316" fill="none" xmlns="http://www.w3.org/2000/svg">
<g clip-path="url(#clip0_2680_49209)" filter="url(#filter0_d_2680_49209)">
<path d="M16.5 20C16.5 9.23045 25.2304 0.5 36 0.5H1406C1416.77 0.5 1425.5 9.23045 1425.5 20V216C1425.5 226.77 1416.77 235.5 1406 235.5H36C25.2305 235.5 16.5 226.77 16.5 216V20Z" fill="#18191D" stroke="#23262F"/>
<path d="M303.578 174V161.4H308.636C309.944 161.4 310.94 161.706 311.624 162.318C312.32 162.918 312.668 163.692 312.668 164.64C312.668 165.432 312.452 166.068 312.02 166.548C311.6 167.016 311.084 167.334 310.472 167.502C311.192 167.646 311.786 168.006 312.254 168.582C312.722 169.146 312.956 169.806 312.956 170.562C312.956 171.558 312.596 172.38 311.876 173.028C311.156 173.676 310.136 174 308.816 174H303.578ZM305.882 166.692H308.294C308.942 166.692 309.44 166.542 309.788 166.242C310.136 165.942 310.31 165.516 310.31 164.964C310.31 164.436 310.136 164.022 309.788 163.722C309.452 163.41 308.942 163.254 308.258 163.254H305.882V166.692ZM305.882 172.128H308.456C309.14 172.128 309.668 171.972 310.04 171.66C310.424 171.336 310.616 170.886 310.616 170.31C310.616 169.722 310.418 169.26 310.022 168.924C309.626 168.588 309.092 168.42 308.42 168.42H305.882V172.128ZM317.709 174V163.254H314.037V161.4H323.703V163.254H320.013V174H317.709ZM330.659 174.216C329.387 174.216 328.295 173.946 327.383 173.406C326.471 172.854 325.769 172.092 325.277 171.12C324.785 170.136 324.539 169.002 324.539 167.718C324.539 166.434 324.785 165.3 325.277 164.316C325.769 163.332 326.471 162.564 327.383 162.012C328.295 161.46 329.387 161.184 330.659 161.184C332.171 161.184 333.407 161.562 334.367 162.318C335.339 163.062 335.945 164.112 336.185 165.468H333.647C333.491 164.784 333.155 164.25 332.639 163.866C332.135 163.47 331.463 163.272 330.623 163.272C329.459 163.272 328.547 163.668 327.887 164.46C327.227 165.252 326.897 166.338 326.897 167.718C326.897 169.098 327.227 170.184 327.887 170.976C328.547 171.756 329.459 172.146 330.623 172.146C331.463 172.146 332.135 171.966 332.639 171.606C333.155 171.234 333.491 170.724 333.647 170.076H336.185C335.945 171.372 335.339 172.386 334.367 173.118C333.407 173.85 332.171 174.216 330.659 174.216Z" fill="#777E90"/>
<path d="M81.112 176.288C79.88 176.288 78.768 176.048 77.776 175.568C76.784 175.072 75.992 174.328 75.4 173.336C74.824 172.344 74.536 171.088 74.536 169.568V159.2H77.608V169.592C77.608 170.904 77.92 171.88 78.544 172.52C79.184 173.16 80.064 173.48 81.184 173.48C82.288 173.48 83.16 173.16 83.8 172.52C84.44 171.88 84.76 170.904 84.76 169.592V159.2H87.832V169.568C87.832 171.088 87.528 172.344 86.92 173.336C86.312 174.328 85.496 175.072 84.472 175.568C83.464 176.048 82.344 176.288 81.112 176.288ZM96.4639 176.288C95.2319 176.288 94.1439 176.08 93.1999 175.664C92.2559 175.232 91.5119 174.624 90.9679 173.84C90.4239 173.04 90.1439 172.072 90.1279 170.936H93.3679C93.3999 171.72 93.6799 172.384 94.2079 172.928C94.7519 173.456 95.4959 173.72 96.4399 173.72C97.2559 173.72 97.9039 173.528 98.3839 173.144C98.8639 172.744 99.1039 172.216 99.1039 171.56C99.1039 170.872 98.8879 170.336 98.4559 169.952C98.0399 169.568 97.4799 169.256 96.7759 169.016C96.0719 168.776 95.3199 168.52 94.5199 168.248C93.2239 167.8 92.2319 167.224 91.5439 166.52C90.8719 165.816 90.5359 164.88 90.5359 163.712C90.5199 162.72 90.7519 161.872 91.2319 161.168C91.7279 160.448 92.3999 159.896 93.2479 159.512C94.0959 159.112 95.0719 158.912 96.1759 158.912C97.2959 158.912 98.2799 159.112 99.1279 159.512C99.9919 159.912 100.664 160.472 101.144 161.192C101.64 161.912 101.904 162.768 101.936 163.76H98.6479C98.6319 163.168 98.3999 162.648 97.9519 162.2C97.5199 161.736 96.9119 161.504 96.1279 161.504C95.4559 161.488 94.8879 161.656 94.4239 162.008C93.9759 162.344 93.7519 162.84 93.7519 163.496C93.7519 164.056 93.9279 164.504 94.2799 164.84C94.6319 165.16 95.1119 165.432 95.7199 165.656C96.3279 165.88 97.0239 166.12 97.8079 166.376C98.6399 166.664 99.3999 167 100.088 167.384C100.776 167.768 101.328 168.28 101.744 168.92C102.16 169.544 102.368 170.352 102.368 171.344C102.368 172.224 102.144 173.04 101.696 173.792C101.248 174.544 100.584 175.152 99.7039 175.616C98.8239 176.064 97.7439 176.288 96.4639 176.288ZM104.808 176V159.2H110.544C112.512 159.2 114.128 159.552 115.392 160.256C116.672 160.944 117.616 161.92 118.224 163.184C118.848 164.432 119.16 165.904 119.16 167.6C119.16 169.296 118.848 170.776 118.224 172.04C117.616 173.288 116.672 174.264 115.392 174.968C114.128 175.656 112.512 176 110.544 176H104.808ZM107.88 173.36H110.4C111.808 173.36 112.92 173.136 113.736 172.688C114.552 172.224 115.136 171.568 115.488 170.72C115.84 169.856 116.016 168.816 116.016 167.6C116.016 166.4 115.84 165.368 115.488 164.504C115.136 163.64 114.552 162.976 113.736 162.512C112.92 162.048 111.808 161.816 110.4 161.816H107.88V173.36ZM133.422 176.288C132.158 176.288 131.094 176.056 130.23 175.592C129.366 175.128 128.67 174.504 128.142 173.72C127.614 172.936 127.23 172.064 126.99 171.104C126.766 170.144 126.654 169.16 126.654 168.152C126.654 166.28 126.918 164.656 127.446 163.28C127.974 161.888 128.734 160.816 129.726 160.064C130.718 159.296 131.918 158.912 133.326 158.912C134.478 158.912 135.454 159.144 136.254 159.608C137.07 160.056 137.702 160.648 138.15 161.384C138.598 162.12 138.862 162.912 138.942 163.76H136.086C135.942 163.024 135.63 162.456 135.15 162.056C134.67 161.656 134.054 161.456 133.302 161.456C132.23 161.456 131.366 161.952 130.71 162.944C130.054 163.92 129.702 165.416 129.654 167.432C130.038 166.776 130.614 166.232 131.382 165.8C132.15 165.368 133.006 165.152 133.95 165.152C134.878 165.152 135.75 165.376 136.566 165.824C137.382 166.272 138.038 166.904 138.534 167.72C139.046 168.536 139.302 169.496 139.302 170.6C139.302 171.608 139.054 172.544 138.558 173.408C138.078 174.272 137.39 174.968 136.494 175.496C135.614 176.024 134.59 176.288 133.422 176.288ZM133.254 173.648C134.15 173.648 134.886 173.376 135.462 172.832C136.054 172.272 136.35 171.568 136.35 170.72C136.35 169.824 136.054 169.104 135.462 168.56C134.87 168.016 134.118 167.744 133.206 167.744C132.614 167.744 132.078 167.88 131.598 168.152C131.134 168.408 130.766 168.76 130.494 169.208C130.222 169.64 130.086 170.128 130.086 170.672C130.086 171.536 130.382 172.248 130.974 172.808C131.582 173.368 132.342 173.648 133.254 173.648ZM141.368 176V173.768C142.392 172.92 143.384 172.08 144.344 171.248C145.32 170.416 146.184 169.592 146.936 168.776C147.704 167.96 148.312 167.168 148.76 166.4C149.224 165.616 149.456 164.856 149.456 164.12C149.456 163.432 149.264 162.824 148.88 162.296C148.512 161.768 147.896 161.504 147.032 161.504C146.152 161.504 145.488 161.792 145.04 162.368C144.592 162.944 144.368 163.64 144.368 164.456H141.392C141.424 163.224 141.696 162.2 142.208 161.384C142.72 160.552 143.4 159.936 144.248 159.536C145.096 159.12 146.048 158.912 147.104 158.912C148.816 158.912 150.144 159.384 151.088 160.328C152.048 161.256 152.528 162.464 152.528 163.952C152.528 164.88 152.312 165.784 151.88 166.664C151.464 167.544 150.912 168.392 150.224 169.208C149.536 170.024 148.792 170.792 147.992 171.512C147.192 172.216 146.416 172.872 145.664 173.48H152.936V176H141.368ZM153.951 178.784L155.319 172.808H158.295L155.967 178.784H153.951ZM160.153 176V173.768C161.177 172.92 162.169 172.08 163.129 171.248C164.105 170.416 164.969 169.592 165.721 168.776C166.489 167.96 167.097 167.168 167.545 166.4C168.009 165.616 168.241 164.856 168.241 164.12C168.241 163.432 168.049 162.824 167.665 162.296C167.297 161.768 166.681 161.504 165.817 161.504C164.937 161.504 164.273 161.792 163.825 162.368C163.377 162.944 163.153 163.64 163.153 164.456H160.177C160.209 163.224 160.481 162.2 160.993 161.384C161.505 160.552 162.185 159.936 163.033 159.536C163.881 159.12 164.833 158.912 165.889 158.912C167.601 158.912 168.929 159.384 169.873 160.328C170.833 161.256 171.313 162.464 171.313 163.952C171.313 164.88 171.097 165.784 170.665 166.664C170.249 167.544 169.697 168.392 169.009 169.208C168.321 170.024 167.577 170.792 166.777 171.512C165.977 172.216 165.201 172.872 164.449 173.48H171.721V176H160.153ZM180.344 176.288C179.08 176.288 178.016 176.056 177.152 175.592C176.288 175.128 175.592 174.504 175.064 173.72C174.536 172.936 174.152 172.064 173.912 171.104C173.688 170.144 173.576 169.16 173.576 168.152C173.576 166.28 173.84 164.656 174.368 163.28C174.896 161.888 175.656 160.816 176.648 160.064C177.64 159.296 178.84 158.912 180.248 158.912C181.4 158.912 182.376 159.144 183.176 159.608C183.992 160.056 184.624 160.648 185.072 161.384C185.52 162.12 185.784 162.912 185.864 163.76H183.008C182.864 163.024 182.552 162.456 182.072 162.056C181.592 161.656 180.976 161.456 180.224 161.456C179.152 161.456 178.288 161.952 177.632 162.944C176.976 163.92 176.624 165.416 176.576 167.432C176.96 166.776 177.536 166.232 178.304 165.8C179.072 165.368 179.928 165.152 180.872 165.152C181.8 165.152 182.672 165.376 183.488 165.824C184.304 166.272 184.96 166.904 185.456 167.72C185.968 168.536 186.224 169.496 186.224 170.6C186.224 171.608 185.976 172.544 185.48 173.408C185 174.272 184.312 174.968 183.416 175.496C182.536 176.024 181.512 176.288 180.344 176.288ZM180.176 173.648C181.072 173.648 181.808 173.376 182.384 172.832C182.976 172.272 183.272 171.568 183.272 170.72C183.272 169.824 182.976 169.104 182.384 168.56C181.792 168.016 181.04 167.744 180.128 167.744C179.536 167.744 179 167.88 178.52 168.152C178.056 168.408 177.688 168.76 177.416 169.208C177.144 169.64 177.008 170.128 177.008 170.672C177.008 171.536 177.304 172.248 177.896 172.808C178.504 173.368 179.264 173.648 180.176 173.648ZM195.891 176.288C194.339 176.288 193.011 175.928 191.907 175.208C190.803 174.472 189.947 173.456 189.339 172.16C188.747 170.848 188.451 169.328 188.451 167.6C188.451 165.888 188.747 164.376 189.339 163.064C189.947 161.752 190.803 160.736 191.907 160.016C193.011 159.28 194.339 158.912 195.891 158.912C197.443 158.912 198.771 159.28 199.875 160.016C200.979 160.736 201.827 161.752 202.419 163.064C203.027 164.376 203.331 165.888 203.331 167.6C203.331 169.328 203.027 170.848 202.419 172.16C201.827 173.456 200.979 174.472 199.875 175.208C198.771 175.928 197.443 176.288 195.891 176.288ZM195.891 173.528C197.155 173.528 198.187 173 198.987 171.944C199.787 170.888 200.187 169.44 200.187 167.6C200.187 165.76 199.787 164.312 198.987 163.256C198.187 162.2 197.155 161.672 195.891 161.672C194.611 161.672 193.571 162.2 192.771 163.256C191.987 164.312 191.595 165.76 191.595 167.6C191.595 169.44 191.987 170.888 192.771 171.944C193.571 173 194.611 173.528 195.891 173.528ZM206.089 176.168C205.529 176.168 205.065 175.992 204.697 175.64C204.345 175.288 204.169 174.864 204.169 174.368C204.169 173.856 204.345 173.424 204.697 173.072C205.065 172.72 205.529 172.544 206.089 172.544C206.649 172.544 207.105 172.72 207.457 173.072C207.825 173.424 208.009 173.856 208.009 174.368C208.009 174.864 207.825 175.288 207.457 175.64C207.105 175.992 206.649 176.168 206.089 176.168ZM209.959 176V173.768C210.983 172.92 211.975 172.08 212.935 171.248C213.911 170.416 214.775 169.592 215.527 168.776C216.295 167.96 216.903 167.168 217.351 166.4C217.815 165.616 218.047 164.856 218.047 164.12C218.047 163.432 217.855 162.824 217.471 162.296C217.103 161.768 216.487 161.504 215.623 161.504C214.743 161.504 214.079 161.792 213.631 162.368C213.183 162.944 212.959 163.64 212.959 164.456H209.983C210.015 163.224 210.287 162.2 210.799 161.384C211.311 160.552 211.991 159.936 212.839 159.536C213.687 159.12 214.639 158.912 215.695 158.912C217.407 158.912 218.735 159.384 219.679 160.328C220.639 161.256 221.119 162.464 221.119 163.952C221.119 164.88 220.903 165.784 220.471 166.664C220.055 167.544 219.503 168.392 218.815 169.208C218.127 170.024 217.383 170.792 216.583 171.512C215.783 172.216 215.007 172.872 214.255 173.48H221.527V176H209.959ZM230.609 176.288C229.057 176.288 227.729 175.928 226.625 175.208C225.521 174.472 224.665 173.456 224.057 172.16C223.465 170.848 223.169 169.328 223.169 167.6C223.169 165.888 223.465 164.376 224.057 163.064C224.665 161.752 225.521 160.736 226.625 160.016C227.729 159.28 229.057 158.912 230.609 158.912C232.161 158.912 233.489 159.28 234.593 160.016C235.697 160.736 236.545 161.752 237.137 163.064C237.745 164.376 238.049 165.888 238.049 167.6C238.049 169.328 237.745 170.848 237.137 172.16C236.545 173.456 235.697 174.472 234.593 175.208C233.489 175.928 232.161 176.288 230.609 176.288ZM230.609 173.528C231.873 173.528 232.905 173 233.705 171.944C234.505 170.888 234.905 169.44 234.905 167.6C234.905 165.76 234.505 164.312 233.705 163.256C232.905 162.2 231.873 161.672 230.609 161.672C229.329 161.672 228.289 162.2 227.489 163.256C226.705 164.312 226.313 165.76 226.313 167.6C226.313 169.44 226.705 170.888 227.489 171.944C228.289 173 229.329 173.528 230.609 173.528Z" fill="white"/>
<path d="M73.952 137V127.2H77.886C78.9033 127.2 79.678 127.438 80.21 127.914C80.7513 128.381 81.022 128.983 81.022 129.72C81.022 130.336 80.854 130.831 80.518 131.204C80.1913 131.568 79.79 131.815 79.314 131.946C79.874 132.058 80.336 132.338 80.7 132.786C81.064 133.225 81.246 133.738 81.246 134.326C81.246 135.101 80.966 135.74 80.406 136.244C79.846 136.748 79.0527 137 78.026 137H73.952ZM75.744 131.316H77.62C78.124 131.316 78.5113 131.199 78.782 130.966C79.0527 130.733 79.188 130.401 79.188 129.972C79.188 129.561 79.0527 129.239 78.782 129.006C78.5207 128.763 78.124 128.642 77.592 128.642H75.744V131.316ZM75.744 135.544H77.746C78.278 135.544 78.6887 135.423 78.978 135.18C79.2767 134.928 79.426 134.578 79.426 134.13C79.426 133.673 79.272 133.313 78.964 133.052C78.656 132.791 78.2407 132.66 77.718 132.66H75.744V135.544ZM83.708 128.978C83.3814 128.978 83.1107 128.88 82.896 128.684C82.6907 128.488 82.588 128.241 82.588 127.942C82.588 127.643 82.6907 127.401 82.896 127.214C83.1107 127.018 83.3814 126.92 83.708 126.92C84.0347 126.92 84.3007 127.018 84.506 127.214C84.7207 127.401 84.828 127.643 84.828 127.942C84.828 128.241 84.7207 128.488 84.506 128.684C84.3007 128.88 84.0347 128.978 83.708 128.978ZM82.812 137V130.056H84.604V137H82.812ZM89.5685 137C88.8405 137 88.2571 136.823 87.8185 136.468C87.3798 136.113 87.1605 135.483 87.1605 134.578V131.554H85.9705V130.056H87.1605L87.3705 128.194H88.9525V130.056H90.8285V131.554H88.9525V134.592C88.9525 134.928 89.0225 135.161 89.1625 135.292C89.3118 135.413 89.5638 135.474 89.9185 135.474H90.7865V137H89.5685ZM95.5913 137.168C94.882 137.168 94.2566 137.014 93.7153 136.706C93.174 136.398 92.7446 135.969 92.4273 135.418C92.1193 134.867 91.9653 134.237 91.9653 133.528C91.9653 132.819 92.1193 132.189 92.4273 131.638C92.7446 131.087 93.174 130.658 93.7153 130.35C94.2566 130.042 94.882 129.888 95.5913 129.888C96.478 129.888 97.2246 130.121 97.8313 130.588C98.438 131.045 98.8253 131.68 98.9933 132.492H97.1033C97.01 132.156 96.8233 131.895 96.5433 131.708C96.2726 131.512 95.9506 131.414 95.5773 131.414C95.0826 131.414 94.6626 131.601 94.3173 131.974C93.972 132.347 93.7993 132.865 93.7993 133.528C93.7993 134.191 93.972 134.709 94.3173 135.082C94.6626 135.455 95.0826 135.642 95.5773 135.642C95.9506 135.642 96.2726 135.549 96.5433 135.362C96.8233 135.175 97.01 134.909 97.1033 134.564H98.9933C98.8253 135.348 98.438 135.978 97.8313 136.454C97.2246 136.93 96.478 137.168 95.5913 137.168ZM103.916 137.168C103.244 137.168 102.637 137.014 102.096 136.706C101.564 136.398 101.139 135.973 100.822 135.432C100.514 134.881 100.36 134.247 100.36 133.528C100.36 132.809 100.518 132.179 100.836 131.638C101.153 131.087 101.578 130.658 102.11 130.35C102.651 130.042 103.258 129.888 103.93 129.888C104.592 129.888 105.19 130.042 105.722 130.35C106.263 130.658 106.688 131.087 106.996 131.638C107.313 132.179 107.472 132.809 107.472 133.528C107.472 134.247 107.313 134.881 106.996 135.432C106.688 135.973 106.263 136.398 105.722 136.706C105.18 137.014 104.578 137.168 103.916 137.168ZM103.916 135.614C104.382 135.614 104.788 135.441 105.134 135.096C105.479 134.741 105.652 134.219 105.652 133.528C105.652 132.837 105.479 132.319 105.134 131.974C104.788 131.619 104.387 131.442 103.93 131.442C103.454 131.442 103.043 131.619 102.698 131.974C102.362 132.319 102.194 132.837 102.194 133.528C102.194 134.219 102.362 134.741 102.698 135.096C103.043 135.441 103.449 135.614 103.916 135.614ZM110.04 128.978C109.713 128.978 109.443 128.88 109.228 128.684C109.023 128.488 108.92 128.241 108.92 127.942C108.92 127.643 109.023 127.401 109.228 127.214C109.443 127.018 109.713 126.92 110.04 126.92C110.367 126.92 110.633 127.018 110.838 127.214C111.053 127.401 111.16 127.643 111.16 127.942C111.16 128.241 111.053 128.488 110.838 128.684C110.633 128.88 110.367 128.978 110.04 128.978ZM109.144 137V130.056H110.936V137H109.144ZM112.806 137V130.056H114.388L114.528 131.232C114.743 130.821 115.051 130.495 115.452 130.252C115.863 130.009 116.344 129.888 116.894 129.888C117.753 129.888 118.42 130.159 118.896 130.7C119.372 131.241 119.61 132.035 119.61 133.08V137H117.818V133.248C117.818 132.651 117.697 132.193 117.454 131.876C117.212 131.559 116.834 131.4 116.32 131.4C115.816 131.4 115.401 131.577 115.074 131.932C114.757 132.287 114.598 132.781 114.598 133.416V137H112.806Z" fill="white"/>
<path d="M219 93.5422H222.423C222.893 93.5422 223.34 93.3349 223.644 92.9755L230.434 84.9491C230.494 84.8787 230.547 84.8034 230.593 84.7239L235.498 76.3445C235.962 75.5512 236.998 75.3113 237.763 75.8196L247.759 82.4539C248.392 82.8743 249.234 82.791 249.773 82.2547L253.421 78.6225C253.983 78.0625 254.871 77.9995 255.507 78.4743L259.271 81.2846C259.697 81.6031 260.254 81.6886 260.757 81.5128L266.938 79.3494L272.721 76.6983C272.859 76.6347 272.988 76.5516 273.103 76.4515L279.266 71.0956C279.863 70.5765 280.75 70.572 281.353 71.085L286.366 75.3535C286.621 75.5702 286.937 75.7017 287.27 75.7296L293.672 76.2655H301.5C302 76.2655 302.472 76.0317 302.774 75.6335L309.263 67.0943C309.317 67.0235 309.376 66.9573 309.441 66.8964L319.156 57.7658C320.021 56.953 321.439 57.3317 321.783 58.4676L325.202 69.7461C325.372 70.304 325.831 70.7258 326.401 70.847L331.217 71.8699C331.913 72.0176 332.427 72.6065 332.48 73.3154L333.419 85.8421C333.481 86.677 334.177 87.3226 335.014 87.3226H337" stroke="#58BD7D" stroke-width="1.6" stroke-linecap="round" stroke-linejoin="round"/>
<path d="M222.423 93.5422H219L335.394 93.9938C336.28 93.9972 337 93.2799 337 92.3938V88.9226C337 88.0389 336.284 87.3226 335.4 87.3226H335.014C334.177 87.3226 333.481 86.677 333.419 85.8421L332.48 73.3154C332.427 72.6065 331.913 72.0176 331.217 71.8699L326.401 70.847C325.831 70.7258 325.372 70.304 325.202 69.7461L321.783 58.4676C321.439 57.3317 320.021 56.953 319.156 57.7658L309.441 66.8964C309.376 66.9573 309.317 67.0235 309.263 67.0943L302.774 75.6335C302.472 76.0317 302 76.2655 301.5 76.2655H293.672L287.27 75.7296C286.937 75.7017 286.621 75.5702 286.366 75.3535L281.353 71.085C280.75 70.572 279.863 70.5765 279.266 71.0956L273.103 76.4515C272.988 76.5516 272.859 76.6347 272.721 76.6983L266.938 79.3494L260.757 81.5128C260.254 81.6886 259.697 81.6031 259.271 81.2846L255.507 78.4743C254.871 77.9995 253.983 78.0625 253.421 78.6225L249.773 82.2547C249.234 82.791 248.392 82.8743 247.759 82.4539L237.763 75.8196C236.998 75.3113 235.962 75.5512 235.498 76.3445L230.593 84.7239C230.547 84.8034 230.494 84.8787 230.434 84.9491L223.644 92.9755C223.34 93.3349 222.893 93.5422 222.423 93.5422Z" fill="url(#paint0_linear_2680_49209)"/>
<rect x="270" y="98" width="67" height="28" rx="14" fill="#58BD7D"/>
<path d="M282.394 111.906C282.478 112.062 282.638 112.159 282.812 112.159H285.522V117.51C285.522 117.781 285.737 118 286.001 118C286.265 118 286.479 117.781 286.479 117.51V112.159H289.189C289.364 112.159 289.524 112.062 289.607 111.906C289.692 111.75 289.686 111.559 289.594 111.408L286.405 106.228C286.318 106.086 286.165 106 286.001 106C285.836 106 285.684 106.086 285.596 106.228L282.407 111.408C282.359 111.488 282.334 111.579 282.334 111.669C282.334 111.75 282.354 111.832 282.394 111.906Z" fill="white"/>
<path d="M296.197 117L300.421 107.544H294.901V105.8H302.533V107.256L298.325 117H296.197ZM303.983 117.112C303.609 117.112 303.3 116.995 303.055 116.76C302.82 116.525 302.703 116.243 302.703 115.912C302.703 115.571 302.82 115.283 303.055 115.048C303.3 114.813 303.609 114.696 303.983 114.696C304.356 114.696 304.66 114.813 304.895 115.048C305.14 115.283 305.263 115.571 305.263 115.912C305.263 116.243 305.14 116.525 304.895 116.76C304.66 116.995 304.356 117.112 303.983 117.112ZM306.722 117V115.512C307.405 114.947 308.066 114.387 308.706 113.832C309.357 113.277 309.933 112.728 310.434 112.184C310.946 111.64 311.352 111.112 311.65 110.6C311.96 110.077 312.114 109.571 312.114 109.08C312.114 108.621 311.986 108.216 311.73 107.864C311.485 107.512 311.074 107.336 310.498 107.336C309.912 107.336 309.469 107.528 309.17 107.912C308.872 108.296 308.722 108.76 308.722 109.304H306.738C306.76 108.483 306.941 107.8 307.282 107.256C307.624 106.701 308.077 106.291 308.642 106.024C309.208 105.747 309.842 105.608 310.546 105.608C311.688 105.608 312.573 105.923 313.202 106.552C313.842 107.171 314.162 107.976 314.162 108.968C314.162 109.587 314.018 110.189 313.73 110.776C313.453 111.363 313.085 111.928 312.626 112.472C312.168 113.016 311.672 113.528 311.138 114.008C310.605 114.477 310.088 114.915 309.586 115.32H314.434V117H306.722ZM318.439 111.304C317.927 111.304 317.463 111.192 317.047 110.968C316.631 110.733 316.3 110.403 316.055 109.976C315.81 109.549 315.687 109.043 315.687 108.456C315.687 107.869 315.81 107.363 316.055 106.936C316.3 106.509 316.631 106.184 317.047 105.96C317.463 105.725 317.932 105.608 318.455 105.608C318.967 105.608 319.426 105.725 319.831 105.96C320.247 106.184 320.578 106.509 320.823 106.936C321.068 107.363 321.191 107.869 321.191 108.456C321.191 109.043 321.068 109.549 320.823 109.976C320.578 110.403 320.247 110.733 319.831 110.968C319.415 111.192 318.951 111.304 318.439 111.304ZM317.831 117L324.151 105.8H326.151L319.831 117H317.831ZM318.439 109.88C318.748 109.88 319.015 109.763 319.239 109.528C319.463 109.283 319.575 108.925 319.575 108.456C319.575 107.987 319.463 107.629 319.239 107.384C319.026 107.139 318.759 107.016 318.439 107.016C318.119 107.016 317.847 107.139 317.623 107.384C317.41 107.629 317.303 107.987 317.303 108.456C317.303 108.925 317.41 109.283 317.623 109.528C317.847 109.763 318.119 109.88 318.439 109.88ZM325.607 117.192C325.095 117.192 324.631 117.08 324.215 116.856C323.799 116.621 323.468 116.291 323.223 115.864C322.978 115.437 322.855 114.931 322.855 114.344C322.855 113.757 322.978 113.256 323.223 112.84C323.468 112.413 323.799 112.088 324.215 111.864C324.631 111.629 325.1 111.512 325.623 111.512C326.135 111.512 326.594 111.629 326.999 111.864C327.415 112.088 327.746 112.413 327.991 112.84C328.236 113.256 328.359 113.757 328.359 114.344C328.359 114.931 328.236 115.437 327.991 115.864C327.746 116.291 327.415 116.621 326.999 116.856C326.594 117.08 326.13 117.192 325.607 117.192ZM325.607 115.768C325.927 115.768 326.194 115.651 326.407 115.416C326.631 115.171 326.743 114.813 326.743 114.344C326.743 113.875 326.631 113.517 326.407 113.272C326.194 113.027 325.927 112.904 325.607 112.904C325.287 112.904 325.015 113.027 324.791 113.272C324.578 113.517 324.471 113.875 324.471 114.344C324.471 114.813 324.578 115.171 324.791 115.416C325.015 115.651 325.287 115.768 325.607 115.768Z" fill="white"/>
<g clip-path="url(#clip1_2680_49209)">
<rect x="73" y="56" width="44" height="44" rx="22" fill="#F7931A"/>
<path d="M104.669 75.2775C105.101 72.3955 102.905 70.8459 99.9046 69.8119L100.878 65.9069L98.5021 65.3156L97.5534 69.1175C96.9291 68.9608 96.2884 68.815 95.649 68.6692L96.6046 64.8426L94.2286 64.25L93.2551 68.1536C92.7381 68.0354 92.2294 67.9199 91.7371 67.7961L91.7399 67.7837L88.4619 66.9656L87.8294 69.5039C87.8294 69.5039 89.5935 69.9081 89.5564 69.9329C90.5189 70.1735 90.6921 70.8101 90.6633 71.3161L89.555 75.7642C89.621 75.7807 89.7062 75.8055 89.8025 75.8426L89.5509 75.7807L87.9971 82.0122C87.8789 82.3037 87.5805 82.7424 86.9068 82.576C86.9315 82.6104 85.1798 82.1456 85.1798 82.1456L84 84.8654L87.0937 85.6368C87.6685 85.7811 88.2322 85.9324 88.7864 86.074L87.8033 90.023L90.1779 90.6143L91.1514 86.7092C91.8004 86.8839 92.4301 87.0461 93.0461 87.2001L92.0754 91.0886L94.4514 91.6799L95.4345 87.7391C99.488 88.5064 102.535 88.197 103.818 84.5312C104.852 81.5805 103.767 79.8769 101.634 78.7673C103.188 78.4098 104.357 77.3881 104.669 75.2775ZM99.2378 82.8923C98.5049 85.8444 93.5342 84.248 91.9227 83.8479L93.229 78.616C94.8405 79.0189 100.006 79.815 99.2378 82.8923ZM99.9734 75.2349C99.3037 77.9202 95.1677 76.5549 93.8271 76.2208L95.0096 71.477C96.3502 71.8111 100.672 72.434 99.9734 75.2349Z" fill="white"/>
</g>
<g filter="url(#filter1_b_2680_49209)">
<rect x="389" y="28" width="320" height="180" rx="8" fill="#222630"/>
</g>
<path d="M648.281 174V161.4H656.507V163.254H650.585V166.71H655.967V168.51H650.585V172.146H656.507V174H648.281ZM661.621 174V163.254H657.949V161.4H667.615V163.254H663.925V174H661.621ZM669.322 174V161.4H671.626V166.638H677.278V161.4H679.582V174H677.278V168.51H671.626V174H669.322Z" fill="#777E90"/>
<path d="M425.112 176.288C423.88 176.288 422.768 176.048 421.776 175.568C420.784 175.072 419.992 174.328 419.4 173.336C418.824 172.344 418.536 171.088 418.536 169.568V159.2H421.608V169.592C421.608 170.904 421.92 171.88 422.544 172.52C423.184 173.16 424.064 173.48 425.184 173.48C426.288 173.48 427.16 173.16 427.8 172.52C428.44 171.88 428.76 170.904 428.76 169.592V159.2H431.832V169.568C431.832 171.088 431.528 172.344 430.92 173.336C430.312 174.328 429.496 175.072 428.472 175.568C427.464 176.048 426.344 176.288 425.112 176.288ZM440.464 176.288C439.232 176.288 438.144 176.08 437.2 175.664C436.256 175.232 435.512 174.624 434.968 173.84C434.424 173.04 434.144 172.072 434.128 170.936H437.368C437.4 171.72 437.68 172.384 438.208 172.928C438.752 173.456 439.496 173.72 440.44 173.72C441.256 173.72 441.904 173.528 442.384 173.144C442.864 172.744 443.104 172.216 443.104 171.56C443.104 170.872 442.888 170.336 442.456 169.952C442.04 169.568 441.48 169.256 440.776 169.016C440.072 168.776 439.32 168.52 438.52 168.248C437.224 167.8 436.232 167.224 435.544 166.52C434.872 165.816 434.536 164.88 434.536 163.712C434.52 162.72 434.752 161.872 435.232 161.168C435.728 160.448 436.4 159.896 437.248 159.512C438.096 159.112 439.072 158.912 440.176 158.912C441.296 158.912 442.28 159.112 443.128 159.512C443.992 159.912 444.664 160.472 445.144 161.192C445.64 161.912 445.904 162.768 445.936 163.76H442.648C442.632 163.168 442.4 162.648 441.952 162.2C441.52 161.736 440.912 161.504 440.128 161.504C439.456 161.488 438.888 161.656 438.424 162.008C437.976 162.344 437.752 162.84 437.752 163.496C437.752 164.056 437.928 164.504 438.28 164.84C438.632 165.16 439.112 165.432 439.72 165.656C440.328 165.88 441.024 166.12 441.808 166.376C442.64 166.664 443.4 167 444.088 167.384C444.776 167.768 445.328 168.28 445.744 168.92C446.16 169.544 446.368 170.352 446.368 171.344C446.368 172.224 446.144 173.04 445.696 173.792C445.248 174.544 444.584 175.152 443.704 175.616C442.824 176.064 441.744 176.288 440.464 176.288ZM448.808 176V159.2H454.544C456.512 159.2 458.128 159.552 459.392 160.256C460.672 160.944 461.616 161.92 462.224 163.184C462.848 164.432 463.16 165.904 463.16 167.6C463.16 169.296 462.848 170.776 462.224 172.04C461.616 173.288 460.672 174.264 459.392 174.968C458.128 175.656 456.512 176 454.544 176H448.808ZM451.88 173.36H454.4C455.808 173.36 456.92 173.136 457.736 172.688C458.552 172.224 459.136 171.568 459.488 170.72C459.84 169.856 460.016 168.816 460.016 167.6C460.016 166.4 459.84 165.368 459.488 164.504C459.136 163.64 458.552 162.976 457.736 162.512C456.92 162.048 455.808 161.816 454.4 161.816H451.88V173.36ZM476.606 176.288C475.502 176.288 474.502 176.096 473.606 175.712C472.71 175.312 471.99 174.704 471.446 173.888C470.902 173.072 470.614 172.048 470.582 170.816H473.606C473.622 171.632 473.886 172.32 474.398 172.88C474.926 173.424 475.662 173.696 476.606 173.696C477.502 173.696 478.19 173.448 478.67 172.952C479.15 172.456 479.39 171.832 479.39 171.08C479.39 170.2 479.07 169.536 478.43 169.088C477.806 168.624 476.998 168.392 476.006 168.392H474.758V165.872H476.03C476.846 165.872 477.526 165.68 478.07 165.296C478.614 164.912 478.886 164.344 478.886 163.592C478.886 162.968 478.678 162.472 478.262 162.104C477.862 161.72 477.302 161.528 476.582 161.528C475.798 161.528 475.182 161.76 474.734 162.224C474.302 162.688 474.062 163.256 474.014 163.928H471.014C471.078 162.376 471.614 161.152 472.622 160.256C473.646 159.36 474.966 158.912 476.582 158.912C477.734 158.912 478.702 159.12 479.486 159.536C480.286 159.936 480.886 160.472 481.286 161.144C481.702 161.816 481.91 162.56 481.91 163.376C481.91 164.32 481.646 165.12 481.118 165.776C480.606 166.416 479.966 166.848 479.198 167.072C480.142 167.264 480.91 167.728 481.502 168.464C482.094 169.184 482.39 170.096 482.39 171.2C482.39 172.128 482.166 172.976 481.718 173.744C481.27 174.512 480.614 175.128 479.75 175.592C478.902 176.056 477.854 176.288 476.606 176.288ZM483.87 178.784L485.238 172.808H488.214L485.886 178.784H483.87ZM496.793 176.288C495.529 176.288 494.465 176.056 493.601 175.592C492.737 175.128 492.041 174.504 491.513 173.72C490.985 172.936 490.601 172.064 490.361 171.104C490.137 170.144 490.025 169.16 490.025 168.152C490.025 166.28 490.289 164.656 490.817 163.28C491.345 161.888 492.105 160.816 493.097 160.064C494.089 159.296 495.289 158.912 496.697 158.912C497.849 158.912 498.825 159.144 499.625 159.608C500.441 160.056 501.073 160.648 501.521 161.384C501.969 162.12 502.233 162.912 502.313 163.76H499.457C499.313 163.024 499.001 162.456 498.521 162.056C498.041 161.656 497.425 161.456 496.673 161.456C495.601 161.456 494.737 161.952 494.081 162.944C493.425 163.92 493.073 165.416 493.025 167.432C493.409 166.776 493.985 166.232 494.753 165.8C495.521 165.368 496.377 165.152 497.321 165.152C498.249 165.152 499.121 165.376 499.937 165.824C500.753 166.272 501.409 166.904 501.905 167.72C502.417 168.536 502.673 169.496 502.673 170.6C502.673 171.608 502.425 172.544 501.929 173.408C501.449 174.272 500.761 174.968 499.865 175.496C498.985 176.024 497.961 176.288 496.793 176.288ZM496.625 173.648C497.521 173.648 498.257 173.376 498.833 172.832C499.425 172.272 499.721 171.568 499.721 170.72C499.721 169.824 499.425 169.104 498.833 168.56C498.241 168.016 497.489 167.744 496.577 167.744C495.985 167.744 495.449 167.88 494.969 168.152C494.505 168.408 494.137 168.76 493.865 169.208C493.593 169.64 493.457 170.128 493.457 170.672C493.457 171.536 493.753 172.248 494.345 172.808C494.953 173.368 495.713 173.648 496.625 173.648ZM511.764 176.288C510.5 176.288 509.436 176.056 508.572 175.592C507.708 175.128 507.012 174.504 506.484 173.72C505.956 172.936 505.572 172.064 505.332 171.104C505.108 170.144 504.996 169.16 504.996 168.152C504.996 166.28 505.26 164.656 505.788 163.28C506.316 161.888 507.076 160.816 508.068 160.064C509.06 159.296 510.26 158.912 511.668 158.912C512.82 158.912 513.796 159.144 514.596 159.608C515.412 160.056 516.044 160.648 516.492 161.384C516.94 162.12 517.204 162.912 517.284 163.76H514.428C514.284 163.024 513.972 162.456 513.492 162.056C513.012 161.656 512.396 161.456 511.644 161.456C510.572 161.456 509.708 161.952 509.052 162.944C508.396 163.92 508.044 165.416 507.996 167.432C508.38 166.776 508.956 166.232 509.724 165.8C510.492 165.368 511.348 165.152 512.292 165.152C513.22 165.152 514.092 165.376 514.908 165.824C515.724 166.272 516.38 166.904 516.876 167.72C517.388 168.536 517.644 169.496 517.644 170.6C517.644 171.608 517.396 172.544 516.9 173.408C516.42 174.272 515.732 174.968 514.836 175.496C513.956 176.024 512.932 176.288 511.764 176.288ZM511.596 173.648C512.492 173.648 513.228 173.376 513.804 172.832C514.396 172.272 514.692 171.568 514.692 170.72C514.692 169.824 514.396 169.104 513.804 168.56C513.212 168.016 512.46 167.744 511.548 167.744C510.956 167.744 510.42 167.88 509.94 168.152C509.476 168.408 509.108 168.76 508.836 169.208C508.564 169.64 508.428 170.128 508.428 170.672C508.428 171.536 508.724 172.248 509.316 172.808C509.924 173.368 510.684 173.648 511.596 173.648ZM527.311 176.288C525.759 176.288 524.431 175.928 523.327 175.208C522.223 174.472 521.367 173.456 520.759 172.16C520.167 170.848 519.871 169.328 519.871 167.6C519.871 165.888 520.167 164.376 520.759 163.064C521.367 161.752 522.223 160.736 523.327 160.016C524.431 159.28 525.759 158.912 527.311 158.912C528.863 158.912 530.191 159.28 531.295 160.016C532.399 160.736 533.247 161.752 533.839 163.064C534.447 164.376 534.751 165.888 534.751 167.6C534.751 169.328 534.447 170.848 533.839 172.16C533.247 173.456 532.399 174.472 531.295 175.208C530.191 175.928 528.863 176.288 527.311 176.288ZM527.311 173.528C528.575 173.528 529.607 173 530.407 171.944C531.207 170.888 531.607 169.44 531.607 167.6C531.607 165.76 531.207 164.312 530.407 163.256C529.607 162.2 528.575 161.672 527.311 161.672C526.031 161.672 524.991 162.2 524.191 163.256C523.407 164.312 523.015 165.76 523.015 167.6C523.015 169.44 523.407 170.888 524.191 171.944C524.991 173 526.031 173.528 527.311 173.528ZM537.509 176.168C536.949 176.168 536.485 175.992 536.117 175.64C535.765 175.288 535.589 174.864 535.589 174.368C535.589 173.856 535.765 173.424 536.117 173.072C536.485 172.72 536.949 172.544 537.509 172.544C538.069 172.544 538.525 172.72 538.877 173.072C539.245 173.424 539.429 173.856 539.429 174.368C539.429 174.864 539.245 175.288 538.877 175.64C538.525 175.992 538.069 176.168 537.509 176.168ZM541.379 176V173.768C542.403 172.92 543.395 172.08 544.355 171.248C545.331 170.416 546.195 169.592 546.947 168.776C547.715 167.96 548.323 167.168 548.771 166.4C549.235 165.616 549.467 164.856 549.467 164.12C549.467 163.432 549.275 162.824 548.891 162.296C548.523 161.768 547.907 161.504 547.043 161.504C546.163 161.504 545.499 161.792 545.051 162.368C544.603 162.944 544.379 163.64 544.379 164.456H541.403C541.435 163.224 541.707 162.2 542.219 161.384C542.731 160.552 543.411 159.936 544.259 159.536C545.107 159.12 546.059 158.912 547.115 158.912C548.827 158.912 550.155 159.384 551.099 160.328C552.059 161.256 552.539 162.464 552.539 163.952C552.539 164.88 552.323 165.784 551.891 166.664C551.475 167.544 550.923 168.392 550.235 169.208C549.547 170.024 548.803 170.792 548.003 171.512C547.203 172.216 546.427 172.872 545.675 173.48H552.947V176H541.379ZM562.028 176.288C560.476 176.288 559.148 175.928 558.044 175.208C556.94 174.472 556.084 173.456 555.476 172.16C554.884 170.848 554.588 169.328 554.588 167.6C554.588 165.888 554.884 164.376 555.476 163.064C556.084 161.752 556.94 160.736 558.044 160.016C559.148 159.28 560.476 158.912 562.028 158.912C563.58 158.912 564.908 159.28 566.012 160.016C567.116 160.736 567.964 161.752 568.556 163.064C569.164 164.376 569.468 165.888 569.468 167.6C569.468 169.328 569.164 170.848 568.556 172.16C567.964 173.456 567.116 174.472 566.012 175.208C564.908 175.928 563.58 176.288 562.028 176.288ZM562.028 173.528C563.292 173.528 564.324 173 565.124 171.944C565.924 170.888 566.324 169.44 566.324 167.6C566.324 165.76 565.924 164.312 565.124 163.256C564.324 162.2 563.292 161.672 562.028 161.672C560.748 161.672 559.708 162.2 558.908 163.256C558.124 164.312 557.732 165.76 557.732 167.6C557.732 169.44 558.124 170.888 558.908 171.944C559.708 173 560.748 173.528 562.028 173.528Z" fill="white"/>
<path d="M417.952 137V127.2H424.35V128.642H419.744V131.33H423.93V132.73H419.744V135.558H424.35V137H417.952ZM429.098 137C428.37 137 427.786 136.823 427.348 136.468C426.909 136.113 426.69 135.483 426.69 134.578V131.554H425.5V130.056H426.69L426.9 128.194H428.482V130.056H430.358V131.554H428.482V134.592C428.482 134.928 428.552 135.161 428.692 135.292C428.841 135.413 429.093 135.474 429.448 135.474H430.316V137H429.098ZM431.896 137V126.92H433.688V131.12C433.922 130.737 434.234 130.439 434.626 130.224C435.028 130 435.485 129.888 435.998 129.888C436.857 129.888 437.52 130.159 437.986 130.7C438.462 131.241 438.7 132.035 438.7 133.08V137H436.922V133.248C436.922 132.651 436.801 132.193 436.558 131.876C436.325 131.559 435.952 131.4 435.438 131.4C434.934 131.4 434.514 131.577 434.178 131.932C433.852 132.287 433.688 132.781 433.688 133.416V137H431.896ZM443.788 137.168C443.088 137.168 442.467 137.019 441.926 136.72C441.385 136.421 440.96 136.001 440.652 135.46C440.344 134.919 440.19 134.293 440.19 133.584C440.19 132.865 440.339 132.226 440.638 131.666C440.946 131.106 441.366 130.672 441.898 130.364C442.439 130.047 443.074 129.888 443.802 129.888C444.483 129.888 445.085 130.037 445.608 130.336C446.131 130.635 446.537 131.045 446.826 131.568C447.125 132.081 447.274 132.655 447.274 133.29C447.274 133.393 447.269 133.5 447.26 133.612C447.26 133.724 447.255 133.841 447.246 133.962H441.968C442.005 134.503 442.192 134.928 442.528 135.236C442.873 135.544 443.289 135.698 443.774 135.698C444.138 135.698 444.441 135.619 444.684 135.46C444.936 135.292 445.123 135.077 445.244 134.816H447.064C446.933 135.255 446.714 135.656 446.406 136.02C446.107 136.375 445.734 136.655 445.286 136.86C444.847 137.065 444.348 137.168 443.788 137.168ZM443.802 131.344C443.363 131.344 442.976 131.47 442.64 131.722C442.304 131.965 442.089 132.338 441.996 132.842H445.454C445.426 132.385 445.258 132.021 444.95 131.75C444.642 131.479 444.259 131.344 443.802 131.344ZM448.781 137V130.056H450.377L450.545 131.358C450.797 130.91 451.138 130.555 451.567 130.294C452.006 130.023 452.519 129.888 453.107 129.888V131.778H452.603C452.211 131.778 451.861 131.839 451.553 131.96C451.245 132.081 451.002 132.291 450.825 132.59C450.657 132.889 450.573 133.304 450.573 133.836V137H448.781ZM457.583 137.168C456.883 137.168 456.262 137.019 455.721 136.72C455.179 136.421 454.755 136.001 454.447 135.46C454.139 134.919 453.985 134.293 453.985 133.584C453.985 132.865 454.134 132.226 454.433 131.666C454.741 131.106 455.161 130.672 455.693 130.364C456.234 130.047 456.869 129.888 457.597 129.888C458.278 129.888 458.88 130.037 459.403 130.336C459.925 130.635 460.331 131.045 460.621 131.568C460.919 132.081 461.069 132.655 461.069 133.29C461.069 133.393 461.064 133.5 461.055 133.612C461.055 133.724 461.05 133.841 461.041 133.962H455.763C455.8 134.503 455.987 134.928 456.323 135.236C456.668 135.544 457.083 135.698 457.569 135.698C457.933 135.698 458.236 135.619 458.479 135.46C458.731 135.292 458.917 135.077 459.039 134.816H460.859C460.728 135.255 460.509 135.656 460.201 136.02C459.902 136.375 459.529 136.655 459.081 136.86C458.642 137.065 458.143 137.168 457.583 137.168ZM457.597 131.344C457.158 131.344 456.771 131.47 456.435 131.722C456.099 131.965 455.884 132.338 455.791 132.842H459.249C459.221 132.385 459.053 132.021 458.745 131.75C458.437 131.479 458.054 131.344 457.597 131.344ZM465.18 137.168C464.312 137.168 463.64 136.897 463.164 136.356C462.697 135.815 462.464 135.021 462.464 133.976V130.056H464.242V133.808C464.242 134.405 464.363 134.863 464.606 135.18C464.849 135.497 465.231 135.656 465.754 135.656C466.249 135.656 466.655 135.479 466.972 135.124C467.299 134.769 467.462 134.275 467.462 133.64V130.056H469.254V137H467.672L467.532 135.824C467.317 136.235 467.005 136.561 466.594 136.804C466.193 137.047 465.721 137.168 465.18 137.168ZM471.094 137V130.056H472.676L472.83 130.994C473.054 130.658 473.348 130.392 473.712 130.196C474.085 129.991 474.514 129.888 475 129.888C476.073 129.888 476.834 130.303 477.282 131.134C477.534 130.751 477.87 130.448 478.29 130.224C478.719 130 479.186 129.888 479.69 129.888C480.595 129.888 481.29 130.159 481.776 130.7C482.261 131.241 482.504 132.035 482.504 133.08V137H480.712V133.248C480.712 132.651 480.595 132.193 480.362 131.876C480.138 131.559 479.788 131.4 479.312 131.4C478.826 131.4 478.434 131.577 478.136 131.932C477.846 132.287 477.702 132.781 477.702 133.416V137H475.91V133.248C475.91 132.651 475.793 132.193 475.56 131.876C475.326 131.559 474.967 131.4 474.482 131.4C474.006 131.4 473.618 131.577 473.32 131.932C473.03 132.287 472.886 132.781 472.886 133.416V137H471.094Z" fill="white"/>
<path d="M668.18 71.2141L675.691 84.0123C676.05 84.6242 676.706 85 677.416 85H549C547.895 85 547 84.1046 547 83V82.0755C547 80.9709 547.895 80.0755 549 80.0755H549.798C550.507 80.0755 551.162 79.701 551.521 79.0909L557.554 68.8544C557.859 68.3375 558.379 67.9847 558.972 67.8932L564.416 67.0534C564.877 66.9823 565.299 66.7524 565.608 66.4035L569.733 61.7504C570.597 60.7757 572.147 60.8739 572.882 61.9498L578.03 69.4946C578.348 69.9606 578.848 70.2707 579.407 70.3483L585.935 71.2546C586.248 71.2981 586.567 71.2667 586.866 71.163L598.375 67.1686C598.795 67.0226 599.155 66.7406 599.397 66.3671L605.265 57.3156C605.766 56.5431 606.729 56.2122 607.599 56.5141L613.258 58.4782C613.735 58.6438 614.132 58.9838 614.368 59.43L619.13 68.4022C619.378 68.8696 619.802 69.2197 620.307 69.3757L626.413 71.2593C626.545 71.3002 626.673 71.3547 626.794 71.4219L633.554 75.1759C634.141 75.5019 634.853 75.5115 635.448 75.2014L639.728 72.973C640.387 72.6299 641.182 72.6804 641.792 73.104L646.165 76.1393C646.748 76.5439 647.501 76.6094 648.145 76.3114L660.894 70.4114C661.158 70.2895 661.444 70.2264 661.734 70.2264H666.455C667.164 70.2264 667.821 70.6022 668.18 71.2141Z" fill="url(#paint1_linear_2680_49209)"/>
<path d="M681 85H677.416C676.706 85 676.05 84.6242 675.691 84.0123L668.18 71.2141C667.821 70.6022 667.164 70.2264 666.455 70.2264H661.734C661.444 70.2264 661.158 70.2895 660.894 70.4114L648.145 76.3114C647.501 76.6094 646.748 76.5439 646.165 76.1393L641.792 73.104C641.182 72.6804 640.387 72.6299 639.728 72.973L635.448 75.2014C634.853 75.5115 634.141 75.5019 633.554 75.1759L626.794 71.4219C626.673 71.3547 626.545 71.3002 626.413 71.2593L620.307 69.3757C619.802 69.2197 619.378 68.8696 619.13 68.4022L614.368 59.43C614.132 58.9838 613.735 58.6438 613.258 58.4782L607.599 56.5141C606.729 56.2122 605.766 56.5431 605.265 57.3156L599.397 66.3671C599.155 66.7406 598.795 67.0226 598.375 67.1686L586.866 71.163C586.567 71.2667 586.248 71.2981 585.935 71.2546L579.407 70.3483C578.848 70.2707 578.348 69.9606 578.03 69.4946L572.882 61.9498C572.147 60.8739 570.597 60.7757 569.733 61.7504L565.608 66.4035C565.299 66.7524 564.877 66.9823 564.416 67.0534L558.972 67.8932C558.379 67.9847 557.859 68.3375 557.554 68.8544L551.521 79.0909C551.162 79.701 550.507 80.0755 549.798 80.0755H547" stroke="#D33535" stroke-width="2" stroke-linecap="round" stroke-linejoin="round"/>
<rect x="615" y="98" width="66" height="28" rx="14" fill="#D33535"/>
<path d="M634.606 112.094C634.522 111.938 634.362 111.841 634.188 111.841H631.478V106.49C631.478 106.219 631.263 106 630.999 106C630.735 106 630.521 106.219 630.521 106.49V111.841H627.811C627.636 111.841 627.476 111.938 627.393 112.094C627.308 112.25 627.314 112.441 627.406 112.592L630.595 117.772C630.682 117.914 630.835 118 630.999 118C631.164 118 631.316 117.914 631.404 117.772L634.593 112.592C634.641 112.512 634.666 112.421 634.666 112.331C634.666 112.25 634.646 112.168 634.606 112.094Z" fill="white"/>
<path d="M641.929 117V108.136L640.089 108.568V107L642.793 105.8H644.057V117H641.929ZM647.061 117.112C646.687 117.112 646.378 116.995 646.133 116.76C645.898 116.525 645.781 116.243 645.781 115.912C645.781 115.571 645.898 115.283 646.133 115.048C646.378 114.813 646.687 114.696 647.061 114.696C647.434 114.696 647.738 114.813 647.973 115.048C648.218 115.283 648.341 115.571 648.341 115.912C648.341 116.243 648.218 116.525 647.973 116.76C647.738 116.995 647.434 117.112 647.061 117.112ZM654.024 117.192C653.256 117.192 652.563 117.059 651.944 116.792C651.326 116.515 650.83 116.125 650.456 115.624C650.094 115.123 649.912 114.541 649.912 113.88C649.912 113.197 650.088 112.6 650.44 112.088C650.803 111.576 651.278 111.208 651.864 110.984C651.352 110.76 650.947 110.44 650.648 110.024C650.35 109.597 650.2 109.123 650.2 108.6C650.2 108.067 650.344 107.576 650.632 107.128C650.92 106.669 651.347 106.301 651.912 106.024C652.488 105.747 653.192 105.608 654.024 105.608C654.856 105.608 655.555 105.747 656.12 106.024C656.686 106.301 657.112 106.669 657.4 107.128C657.688 107.576 657.832 108.067 657.832 108.6C657.832 109.112 657.678 109.587 657.368 110.024C657.07 110.451 656.67 110.771 656.168 110.984C656.766 111.208 657.24 111.576 657.592 112.088C657.944 112.6 658.12 113.197 658.12 113.88C658.12 114.541 657.939 115.123 657.576 115.624C657.214 116.125 656.718 116.515 656.088 116.792C655.47 117.059 654.782 117.192 654.024 117.192ZM654.024 110.376C654.579 110.376 655.016 110.232 655.336 109.944C655.656 109.656 655.816 109.288 655.816 108.84C655.816 108.349 655.656 107.965 655.336 107.688C655.027 107.411 654.59 107.272 654.024 107.272C653.448 107.272 653.006 107.411 652.696 107.688C652.387 107.965 652.232 108.349 652.232 108.84C652.232 109.299 652.387 109.672 652.696 109.96C653.016 110.237 653.459 110.376 654.024 110.376ZM654.024 115.48C654.707 115.48 655.224 115.315 655.576 114.984C655.928 114.643 656.104 114.216 656.104 113.704C656.104 113.139 655.918 112.696 655.544 112.376C655.182 112.056 654.675 111.896 654.024 111.896C653.374 111.896 652.856 112.056 652.472 112.376C652.099 112.696 651.912 113.139 651.912 113.704C651.912 114.216 652.088 114.643 652.44 114.984C652.803 115.315 653.331 115.48 654.024 115.48ZM662.439 111.304C661.927 111.304 661.463 111.192 661.047 110.968C660.631 110.733 660.3 110.403 660.055 109.976C659.81 109.549 659.687 109.043 659.687 108.456C659.687 107.869 659.81 107.363 660.055 106.936C660.3 106.509 660.631 106.184 661.047 105.96C661.463 105.725 661.932 105.608 662.455 105.608C662.967 105.608 663.426 105.725 663.831 105.96C664.247 106.184 664.578 106.509 664.823 106.936C665.068 107.363 665.191 107.869 665.191 108.456C665.191 109.043 665.068 109.549 664.823 109.976C664.578 110.403 664.247 110.733 663.831 110.968C663.415 111.192 662.951 111.304 662.439 111.304ZM661.831 117L668.151 105.8H670.151L663.831 117H661.831ZM662.439 109.88C662.748 109.88 663.015 109.763 663.239 109.528C663.463 109.283 663.575 108.925 663.575 108.456C663.575 107.987 663.463 107.629 663.239 107.384C663.026 107.139 662.759 107.016 662.439 107.016C662.119 107.016 661.847 107.139 661.623 107.384C661.41 107.629 661.303 107.987 661.303 108.456C661.303 108.925 661.41 109.283 661.623 109.528C661.847 109.763 662.119 109.88 662.439 109.88ZM669.607 117.192C669.095 117.192 668.631 117.08 668.215 116.856C667.799 116.621 667.468 116.291 667.223 115.864C666.978 115.437 666.855 114.931 666.855 114.344C666.855 113.757 666.978 113.256 667.223 112.84C667.468 112.413 667.799 112.088 668.215 111.864C668.631 111.629 669.1 111.512 669.623 111.512C670.135 111.512 670.594 111.629 670.999 111.864C671.415 112.088 671.746 112.413 671.991 112.84C672.236 113.256 672.359 113.757 672.359 114.344C672.359 114.931 672.236 115.437 671.991 115.864C671.746 116.291 671.415 116.621 670.999 116.856C670.594 117.08 670.13 117.192 669.607 117.192ZM669.607 115.768C669.927 115.768 670.194 115.651 670.407 115.416C670.631 115.171 670.743 114.813 670.743 114.344C670.743 113.875 670.631 113.517 670.407 113.272C670.194 113.027 669.927 112.904 669.607 112.904C669.287 112.904 669.015 113.027 668.791 113.272C668.578 113.517 668.471 113.875 668.471 114.344C668.471 114.813 668.578 115.171 668.791 115.416C669.015 115.651 669.287 115.768 669.607 115.768Z" fill="white"/>
<path d="M439 98.533C450.34 98.533 459.533 89.3399 459.533 77.9997C459.533 66.6594 450.34 57.4663 439 57.4663C427.66 57.4663 418.467 66.6594 418.467 77.9997C418.467 89.3399 427.66 98.533 439 98.533Z" fill="white"/>
<path d="M439 95.599C448.721 95.599 456.6 87.7192 456.6 77.9989C456.6 68.2787 448.721 60.3989 439 60.3989C429.28 60.3989 421.4 68.2787 421.4 77.9989C421.4 87.7192 429.28 95.599 439 95.599Z" fill="#555ABE"/>
<path d="M446.181 79.6185C446.149 79.6166 439.094 83.7976 439.002 83.8333C438.981 83.8213 431.864 79.609 431.83 79.6133C431.847 79.6386 438.997 89.7335 439.002 89.7335C439.007 89.7335 446.181 79.6185 446.181 79.6185Z" fill="white"/>
<path d="M439.005 66.2661L431.854 78.2276L439.005 82.4641L446.158 78.2276L439.005 66.2661Z" fill="white"/>
<path d="M985.117 174.216C984.193 174.216 983.359 174.036 982.615 173.676C981.871 173.304 981.277 172.746 980.833 172.002C980.401 171.258 980.185 170.316 980.185 169.176V161.4H982.489V169.194C982.489 170.178 982.723 170.91 983.191 171.39C983.671 171.87 984.331 172.11 985.171 172.11C985.999 172.11 986.653 171.87 987.133 171.39C987.613 170.91 987.853 170.178 987.853 169.194V161.4H990.157V169.176C990.157 170.316 989.929 171.258 989.473 172.002C989.017 172.746 988.405 173.304 987.637 173.676C986.881 174.036 986.041 174.216 985.117 174.216ZM996.811 174.216C995.887 174.216 995.071 174.06 994.363 173.748C993.655 173.424 993.097 172.968 992.689 172.38C992.281 171.78 992.071 171.054 992.059 170.202H994.489C994.513 170.79 994.723 171.288 995.119 171.696C995.527 172.092 996.085 172.29 996.793 172.29C997.405 172.29 997.891 172.146 998.251 171.858C998.611 171.558 998.791 171.162 998.791 170.67C998.791 170.154 998.629 169.752 998.305 169.464C997.993 169.176 997.573 168.942 997.045 168.762C996.517 168.582 995.953 168.39 995.353 168.186C994.381 167.85 993.637 167.418 993.121 166.89C992.617 166.362 992.365 165.66 992.365 164.784C992.353 164.04 992.527 163.404 992.887 162.876C993.259 162.336 993.763 161.922 994.399 161.634C995.035 161.334 995.767 161.184 996.595 161.184C997.435 161.184 998.173 161.334 998.809 161.634C999.457 161.934 999.961 162.354 1000.32 162.894C1000.69 163.434 1000.89 164.076 1000.92 164.82H998.449C998.437 164.376 998.263 163.986 997.927 163.65C997.603 163.302 997.147 163.128 996.559 163.128C996.055 163.116 995.629 163.242 995.281 163.506C994.945 163.758 994.777 164.13 994.777 164.622C994.777 165.042 994.909 165.378 995.173 165.63C995.437 165.87 995.797 166.074 996.253 166.242C996.709 166.41 997.231 166.59 997.819 166.782C998.443 166.998 999.013 167.25 999.529 167.538C1000.05 167.826 1000.46 168.21 1000.77 168.69C1001.08 169.158 1001.24 169.764 1001.24 170.508C1001.24 171.168 1001.07 171.78 1000.74 172.344C1000.4 172.908 999.901 173.364 999.241 173.712C998.581 174.048 997.771 174.216 996.811 174.216ZM1003.25 174V161.4H1007.55C1009.03 161.4 1010.24 161.664 1011.19 162.192C1012.15 162.708 1012.86 163.44 1013.31 164.388C1013.78 165.324 1014.01 166.428 1014.01 167.7C1014.01 168.972 1013.78 170.082 1013.31 171.03C1012.86 171.966 1012.15 172.698 1011.19 173.226C1010.24 173.742 1009.03 174 1007.55 174H1003.25ZM1005.55 172.02H1007.44C1008.5 172.02 1009.33 171.852 1009.95 171.516C1010.56 171.168 1011 170.676 1011.26 170.04C1011.52 169.392 1011.66 168.612 1011.66 167.7C1011.66 166.8 1011.52 166.026 1011.26 165.378C1011 164.73 1010.56 164.232 1009.95 163.884C1009.33 163.536 1008.5 163.362 1007.44 163.362H1005.55V172.02ZM1018.52 174V163.254H1014.85V161.4H1024.52V163.254H1020.83V174H1018.52Z" fill="#777E90"/>
<path d="M769.112 176.288C767.88 176.288 766.768 176.048 765.776 175.568C764.784 175.072 763.992 174.328 763.4 173.336C762.824 172.344 762.536 171.088 762.536 169.568V159.2H765.608V169.592C765.608 170.904 765.92 171.88 766.544 172.52C767.184 173.16 768.064 173.48 769.184 173.48C770.288 173.48 771.16 173.16 771.8 172.52C772.44 171.88 772.76 170.904 772.76 169.592V159.2H775.832V169.568C775.832 171.088 775.528 172.344 774.92 173.336C774.312 174.328 773.496 175.072 772.472 175.568C771.464 176.048 770.344 176.288 769.112 176.288ZM784.464 176.288C783.232 176.288 782.144 176.08 781.2 175.664C780.256 175.232 779.512 174.624 778.968 173.84C778.424 173.04 778.144 172.072 778.128 170.936H781.368C781.4 171.72 781.68 172.384 782.208 172.928C782.752 173.456 783.496 173.72 784.44 173.72C785.256 173.72 785.904 173.528 786.384 173.144C786.864 172.744 787.104 172.216 787.104 171.56C787.104 170.872 786.888 170.336 786.456 169.952C786.04 169.568 785.48 169.256 784.776 169.016C784.072 168.776 783.32 168.52 782.52 168.248C781.224 167.8 780.232 167.224 779.544 166.52C778.872 165.816 778.536 164.88 778.536 163.712C778.52 162.72 778.752 161.872 779.232 161.168C779.728 160.448 780.4 159.896 781.248 159.512C782.096 159.112 783.072 158.912 784.176 158.912C785.296 158.912 786.28 159.112 787.128 159.512C787.992 159.912 788.664 160.472 789.144 161.192C789.64 161.912 789.904 162.768 789.936 163.76H786.648C786.632 163.168 786.4 162.648 785.952 162.2C785.52 161.736 784.912 161.504 784.128 161.504C783.456 161.488 782.888 161.656 782.424 162.008C781.976 162.344 781.752 162.84 781.752 163.496C781.752 164.056 781.928 164.504 782.28 164.84C782.632 165.16 783.112 165.432 783.72 165.656C784.328 165.88 785.024 166.12 785.808 166.376C786.64 166.664 787.4 167 788.088 167.384C788.776 167.768 789.328 168.28 789.744 168.92C790.16 169.544 790.368 170.352 790.368 171.344C790.368 172.224 790.144 173.04 789.696 173.792C789.248 174.544 788.584 175.152 787.704 175.616C786.824 176.064 785.744 176.288 784.464 176.288ZM792.808 176V159.2H798.544C800.512 159.2 802.128 159.552 803.392 160.256C804.672 160.944 805.616 161.92 806.224 163.184C806.848 164.432 807.16 165.904 807.16 167.6C807.16 169.296 806.848 170.776 806.224 172.04C805.616 173.288 804.672 174.264 803.392 174.968C802.128 175.656 800.512 176 798.544 176H792.808ZM795.88 173.36H798.4C799.808 173.36 800.92 173.136 801.736 172.688C802.552 172.224 803.136 171.568 803.488 170.72C803.84 169.856 804.016 168.816 804.016 167.6C804.016 166.4 803.84 165.368 803.488 164.504C803.136 163.64 802.552 162.976 801.736 162.512C800.92 162.048 799.808 161.816 798.4 161.816H795.88V173.36ZM816.934 176V162.704L814.174 163.352V161L818.23 159.2H820.126V176H816.934ZM824.391 176.168C823.831 176.168 823.367 175.992 822.999 175.64C822.647 175.288 822.471 174.864 822.471 174.368C822.471 173.856 822.647 173.424 822.999 173.072C823.367 172.72 823.831 172.544 824.391 172.544C824.951 172.544 825.407 172.72 825.759 173.072C826.127 173.424 826.311 173.856 826.311 174.368C826.311 174.864 826.127 175.288 825.759 175.64C825.407 175.992 824.951 176.168 824.391 176.168ZM834.596 176.288C833.044 176.288 831.716 175.928 830.612 175.208C829.508 174.472 828.652 173.456 828.044 172.16C827.452 170.848 827.156 169.328 827.156 167.6C827.156 165.888 827.452 164.376 828.044 163.064C828.652 161.752 829.508 160.736 830.612 160.016C831.716 159.28 833.044 158.912 834.596 158.912C836.148 158.912 837.476 159.28 838.58 160.016C839.684 160.736 840.532 161.752 841.124 163.064C841.732 164.376 842.036 165.888 842.036 167.6C842.036 169.328 841.732 170.848 841.124 172.16C840.532 173.456 839.684 174.472 838.58 175.208C837.476 175.928 836.148 176.288 834.596 176.288ZM834.596 173.528C835.86 173.528 836.892 173 837.692 171.944C838.492 170.888 838.892 169.44 838.892 167.6C838.892 165.76 838.492 164.312 837.692 163.256C836.892 162.2 835.86 161.672 834.596 161.672C833.316 161.672 832.276 162.2 831.476 163.256C830.692 164.312 830.3 165.76 830.3 167.6C830.3 169.44 830.692 170.888 831.476 171.944C832.276 173 833.316 173.528 834.596 173.528ZM851.395 176.288C849.843 176.288 848.515 175.928 847.411 175.208C846.307 174.472 845.451 173.456 844.843 172.16C844.251 170.848 843.955 169.328 843.955 167.6C843.955 165.888 844.251 164.376 844.843 163.064C845.451 161.752 846.307 160.736 847.411 160.016C848.515 159.28 849.843 158.912 851.395 158.912C852.947 158.912 854.275 159.28 855.379 160.016C856.483 160.736 857.331 161.752 857.923 163.064C858.531 164.376 858.835 165.888 858.835 167.6C858.835 169.328 858.531 170.848 857.923 172.16C857.331 173.456 856.483 174.472 855.379 175.208C854.275 175.928 852.947 176.288 851.395 176.288ZM851.395 173.528C852.659 173.528 853.691 173 854.491 171.944C855.291 170.888 855.691 169.44 855.691 167.6C855.691 165.76 855.291 164.312 854.491 163.256C853.691 162.2 852.659 161.672 851.395 161.672C850.115 161.672 849.075 162.2 848.275 163.256C847.491 164.312 847.099 165.76 847.099 167.6C847.099 169.44 847.491 170.888 848.275 171.944C849.075 173 850.115 173.528 851.395 173.528Z" fill="white"/>
<path d="M765.732 137.168C765.013 137.168 764.365 137.028 763.786 136.748C763.207 136.459 762.745 136.025 762.4 135.446C762.064 134.867 761.896 134.135 761.896 133.248V127.2H763.688V133.262C763.688 134.027 763.87 134.597 764.234 134.97C764.607 135.343 765.121 135.53 765.774 135.53C766.418 135.53 766.927 135.343 767.3 134.97C767.673 134.597 767.86 134.027 767.86 133.262V127.2H769.652V133.248C769.652 134.135 769.475 134.867 769.12 135.446C768.765 136.025 768.289 136.459 767.692 136.748C767.104 137.028 766.451 137.168 765.732 137.168ZM774.827 137.168C774.109 137.168 773.474 137.047 772.923 136.804C772.373 136.552 771.939 136.197 771.621 135.74C771.304 135.273 771.141 134.709 771.131 134.046H773.021C773.04 134.503 773.203 134.891 773.511 135.208C773.829 135.516 774.263 135.67 774.813 135.67C775.289 135.67 775.667 135.558 775.947 135.334C776.227 135.101 776.367 134.793 776.367 134.41C776.367 134.009 776.241 133.696 775.989 133.472C775.747 133.248 775.42 133.066 775.009 132.926C774.599 132.786 774.16 132.637 773.693 132.478C772.937 132.217 772.359 131.881 771.957 131.47C771.565 131.059 771.369 130.513 771.369 129.832C771.36 129.253 771.495 128.759 771.775 128.348C772.065 127.928 772.457 127.606 772.951 127.382C773.446 127.149 774.015 127.032 774.659 127.032C775.313 127.032 775.887 127.149 776.381 127.382C776.885 127.615 777.277 127.942 777.557 128.362C777.847 128.782 778.001 129.281 778.019 129.86H776.101C776.092 129.515 775.957 129.211 775.695 128.95C775.443 128.679 775.089 128.544 774.631 128.544C774.239 128.535 773.908 128.633 773.637 128.838C773.376 129.034 773.245 129.323 773.245 129.706C773.245 130.033 773.348 130.294 773.553 130.49C773.759 130.677 774.039 130.835 774.393 130.966C774.748 131.097 775.154 131.237 775.611 131.386C776.097 131.554 776.54 131.75 776.941 131.974C777.343 132.198 777.665 132.497 777.907 132.87C778.15 133.234 778.271 133.705 778.271 134.284C778.271 134.797 778.141 135.273 777.879 135.712C777.618 136.151 777.231 136.505 776.717 136.776C776.204 137.037 775.574 137.168 774.827 137.168ZM779.835 137V127.2H783.181C784.329 127.2 785.271 127.405 786.009 127.816C786.755 128.217 787.306 128.787 787.661 129.524C788.025 130.252 788.207 131.111 788.207 132.1C788.207 133.089 788.025 133.953 787.661 134.69C787.306 135.418 786.755 135.987 786.009 136.398C785.271 136.799 784.329 137 783.181 137H779.835ZM781.627 135.46H783.097C783.918 135.46 784.567 135.329 785.043 135.068C785.519 134.797 785.859 134.415 786.065 133.92C786.27 133.416 786.373 132.809 786.373 132.1C786.373 131.4 786.27 130.798 786.065 130.294C785.859 129.79 785.519 129.403 785.043 129.132C784.567 128.861 783.918 128.726 783.097 128.726H781.627V135.46ZM791.714 137V128.642H788.858V127.2H796.376V128.642H793.506V137H791.714Z" fill="white"/>
<g clip-path="url(#clip2_2680_49209)">
<path d="M805 78C805 88.7728 797.257 97.7372 787.032 99.6309C785.725 99.8734 784.377 100 783 100C781.486 100 780.008 99.8474 778.58 99.5555C768.548 97.51 761 88.6363 761 78C761 72.1355 763.295 66.8052 767.037 62.8622C767.253 62.6333 767.475 62.4096 767.701 62.1905C771.661 58.358 777.055 56 783 56C788.945 56 794.339 58.358 798.299 62.1905C798.392 62.2803 798.484 62.3719 798.576 62.4634C802.546 66.4424 805 71.9352 805 78Z" fill="#1BA27A"/>
<path d="M787.031 74.7202V69.8174H798.575V62.1909H767.036V69.8173H778.579V74.739C769.255 75.2158 762.27 77.1697 762.27 79.5081C762.27 81.8464 769.255 83.8003 778.579 84.2772V99.5559C780.007 99.8478 781.485 100 782.999 100C784.376 100 785.724 99.8738 787.031 99.6314V84.296C796.549 83.8542 803.728 81.8787 803.728 79.5081C803.728 77.1375 796.549 75.162 787.031 74.7202ZM782.999 82.5217C772.598 82.5217 764.166 80.9548 764.166 79.0214C764.166 77.371 770.311 75.9872 778.579 75.6181V81.2241C779.981 81.4261 781.393 81.5276 782.805 81.5276C784.218 81.5276 785.63 81.4261 787.031 81.2241V75.601C795.494 75.945 801.831 77.3449 801.831 79.0213C801.831 80.9547 793.399 82.5217 782.999 82.5217Z" fill="#F0EFEB"/>
</g>
<path d="M907 93.5422H910.423C910.893 93.5422 911.34 93.3349 911.644 92.9755L918.434 84.9491C918.494 84.8787 918.547 84.8034 918.593 84.7239L923.498 76.3445C923.962 75.5512 924.998 75.3113 925.763 75.8196L935.759 82.4539C936.392 82.8743 937.234 82.791 937.773 82.2547L941.421 78.6225C941.983 78.0625 942.871 77.9995 943.507 78.4743L947.271 81.2846C947.697 81.6031 948.254 81.6886 948.757 81.5128L954.938 79.3494L960.721 76.6983C960.859 76.6347 960.988 76.5516 961.103 76.4515L967.266 71.0956C967.863 70.5765 968.75 70.572 969.353 71.085L974.366 75.3535C974.621 75.5702 974.937 75.7017 975.27 75.7296L981.672 76.2655H989.5C990 76.2655 990.472 76.0317 990.774 75.6335L997.263 67.0943C997.317 67.0235 997.376 66.9573 997.441 66.8964L1007.16 57.7658C1008.02 56.953 1009.44 57.3317 1009.78 58.4676L1013.2 69.7461C1013.37 70.304 1013.83 70.7258 1014.4 70.847L1019.22 71.8699C1019.91 72.0176 1020.43 72.6065 1020.48 73.3154L1021.42 85.8421C1021.48 86.677 1022.18 87.3226 1023.01 87.3226H1025" stroke="#58BD7D" stroke-width="1.6" stroke-linecap="round" stroke-linejoin="round"/>
<path d="M910.423 93.5422H907L1023.39 93.9938C1024.28 93.9972 1025 93.2799 1025 92.3938V88.9226C1025 88.0389 1024.28 87.3226 1023.4 87.3226H1023.01C1022.18 87.3226 1021.48 86.677 1021.42 85.8421L1020.48 73.3154C1020.43 72.6065 1019.91 72.0176 1019.22 71.8699L1014.4 70.847C1013.83 70.7258 1013.37 70.304 1013.2 69.7461L1009.78 58.4676C1009.44 57.3317 1008.02 56.953 1007.16 57.7658L997.441 66.8964C997.376 66.9573 997.317 67.0235 997.263 67.0943L990.774 75.6335C990.472 76.0317 990 76.2655 989.5 76.2655H981.672L975.27 75.7296C974.937 75.7017 974.621 75.5702 974.366 75.3535L969.353 71.085C968.75 70.572 967.863 70.5765 967.266 71.0956L961.103 76.4515C960.988 76.5516 960.859 76.6347 960.721 76.6983L954.938 79.3494L948.757 81.5128C948.254 81.6886 947.697 81.6031 947.271 81.2846L943.507 78.4743C942.871 77.9995 941.983 78.0625 941.421 78.6225L937.773 82.2547C937.234 82.791 936.392 82.8743 935.759 82.4539L925.763 75.8196C924.998 75.3113 923.962 75.5512 923.498 76.3445L918.593 84.7239C918.547 84.8034 918.494 84.8787 918.434 84.9491L911.644 92.9755C911.34 93.3349 910.893 93.5422 910.423 93.5422Z" fill="url(#paint2_linear_2680_49209)"/>
<rect x="945" y="98" width="80" height="28" rx="14" fill="#58BD7D"/>
<path d="M957.394 111.906C957.478 112.062 957.638 112.159 957.812 112.159H960.522V117.51C960.522 117.781 960.737 118 961.001 118C961.265 118 961.479 117.781 961.479 117.51V112.159H964.189C964.364 112.159 964.524 112.062 964.607 111.906C964.692 111.75 964.686 111.559 964.594 111.408L961.405 106.228C961.318 106.086 961.165 106 961.001 106C960.836 106 960.684 106.086 960.596 106.228L957.407 111.408C957.359 111.488 957.334 111.579 957.334 111.669C957.334 111.75 957.354 111.832 957.394 111.906Z" fill="white"/>
<path d="M974.518 117.192C973.782 117.192 973.115 117.064 972.518 116.808C971.92 116.541 971.44 116.136 971.078 115.592C970.715 115.048 970.523 114.365 970.502 113.544H972.518C972.528 114.088 972.704 114.547 973.046 114.92C973.398 115.283 973.888 115.464 974.518 115.464C975.115 115.464 975.574 115.299 975.894 114.968C976.214 114.637 976.374 114.221 976.374 113.72C976.374 113.133 976.16 112.691 975.734 112.392C975.318 112.083 974.779 111.928 974.118 111.928H973.286V110.248H974.134C974.678 110.248 975.131 110.12 975.494 109.864C975.856 109.608 976.038 109.229 976.038 108.728C976.038 108.312 975.899 107.981 975.622 107.736C975.355 107.48 974.982 107.352 974.502 107.352C973.979 107.352 973.568 107.507 973.27 107.816C972.982 108.125 972.822 108.504 972.79 108.952H970.79C970.832 107.917 971.19 107.101 971.862 106.504C972.544 105.907 973.424 105.608 974.502 105.608C975.27 105.608 975.915 105.747 976.438 106.024C976.971 106.291 977.371 106.648 977.638 107.096C977.915 107.544 978.054 108.04 978.054 108.584C978.054 109.213 977.878 109.747 977.526 110.184C977.184 110.611 976.758 110.899 976.246 111.048C976.875 111.176 977.387 111.485 977.782 111.976C978.176 112.456 978.374 113.064 978.374 113.8C978.374 114.419 978.224 114.984 977.926 115.496C977.627 116.008 977.19 116.419 976.614 116.728C976.048 117.037 975.35 117.192 974.518 117.192ZM981.217 117.112C980.844 117.112 980.534 116.995 980.289 116.76C980.054 116.525 979.937 116.243 979.937 115.912C979.937 115.571 980.054 115.283 980.289 115.048C980.534 114.813 980.844 114.696 981.217 114.696C981.59 114.696 981.894 114.813 982.129 115.048C982.374 115.283 982.497 115.571 982.497 115.912C982.497 116.243 982.374 116.525 982.129 116.76C981.894 116.995 981.59 117.112 981.217 117.112ZM988.245 117.192C987.423 117.192 986.714 117.048 986.117 116.76C985.53 116.472 985.066 116.077 984.725 115.576C984.394 115.064 984.202 114.488 984.149 113.848H986.149C986.245 114.307 986.479 114.691 986.853 115C987.226 115.299 987.69 115.448 988.245 115.448C988.842 115.448 989.327 115.229 989.701 114.792C990.085 114.355 990.277 113.811 990.277 113.16C990.277 112.488 990.085 111.955 989.701 111.56C989.327 111.165 988.853 110.968 988.277 110.968C987.797 110.968 987.381 111.085 987.029 111.32C986.677 111.555 986.426 111.848 986.277 112.2H984.309L985.269 105.8H991.477V107.592H986.805L986.293 110.184C986.527 109.928 986.847 109.72 987.253 109.56C987.658 109.389 988.111 109.304 988.613 109.304C989.413 109.304 990.079 109.485 990.613 109.848C991.146 110.2 991.551 110.669 991.829 111.256C992.106 111.832 992.245 112.461 992.245 113.144C992.245 113.923 992.074 114.616 991.733 115.224C991.402 115.832 990.933 116.312 990.325 116.664C989.727 117.016 989.034 117.192 988.245 117.192ZM999.271 117V114.92H993.751V113.288L998.999 105.8H1001.32V113.144H1002.79V114.92H1001.32V117H999.271ZM995.943 113.144H999.399V108.056L995.943 113.144ZM1006.44 111.304C1005.93 111.304 1005.46 111.192 1005.05 110.968C1004.63 110.733 1004.3 110.403 1004.05 109.976C1003.81 109.549 1003.69 109.043 1003.69 108.456C1003.69 107.869 1003.81 107.363 1004.05 106.936C1004.3 106.509 1004.63 106.184 1005.05 105.96C1005.46 105.725 1005.93 105.608 1006.45 105.608C1006.97 105.608 1007.43 105.725 1007.83 105.96C1008.25 106.184 1008.58 106.509 1008.82 106.936C1009.07 107.363 1009.19 107.869 1009.19 108.456C1009.19 109.043 1009.07 109.549 1008.82 109.976C1008.58 110.403 1008.25 110.733 1007.83 110.968C1007.41 111.192 1006.95 111.304 1006.44 111.304ZM1005.83 117L1012.15 105.8H1014.15L1007.83 117H1005.83ZM1006.44 109.88C1006.75 109.88 1007.01 109.763 1007.24 109.528C1007.46 109.283 1007.57 108.925 1007.57 108.456C1007.57 107.987 1007.46 107.629 1007.24 107.384C1007.03 107.139 1006.76 107.016 1006.44 107.016C1006.12 107.016 1005.85 107.139 1005.62 107.384C1005.41 107.629 1005.3 107.987 1005.3 108.456C1005.3 108.925 1005.41 109.283 1005.62 109.528C1005.85 109.763 1006.12 109.88 1006.44 109.88ZM1013.61 117.192C1013.09 117.192 1012.63 117.08 1012.21 116.856C1011.8 116.621 1011.47 116.291 1011.22 115.864C1010.98 115.437 1010.85 114.931 1010.85 114.344C1010.85 113.757 1010.98 113.256 1011.22 112.84C1011.47 112.413 1011.8 112.088 1012.21 111.864C1012.63 111.629 1013.1 111.512 1013.62 111.512C1014.13 111.512 1014.59 111.629 1015 111.864C1015.41 112.088 1015.75 112.413 1015.99 112.84C1016.24 113.256 1016.36 113.757 1016.36 114.344C1016.36 114.931 1016.24 115.437 1015.99 115.864C1015.75 116.291 1015.41 116.621 1015 116.856C1014.59 117.08 1014.13 117.192 1013.61 117.192ZM1013.61 115.768C1013.93 115.768 1014.19 115.651 1014.41 115.416C1014.63 115.171 1014.74 114.813 1014.74 114.344C1014.74 113.875 1014.63 113.517 1014.41 113.272C1014.19 113.027 1013.93 112.904 1013.61 112.904C1013.29 112.904 1013.01 113.027 1012.79 113.272C1012.58 113.517 1012.47 113.875 1012.47 114.344C1012.47 114.813 1012.58 115.171 1012.79 115.416C1013.01 115.651 1013.29 115.768 1013.61 115.768Z" fill="white"/>
<rect x="1290" y="98" width="79" height="28" rx="14" fill="#58BD7D"/>
<path d="M1302.39 111.906C1302.48 112.062 1302.64 112.159 1302.81 112.159H1305.52V117.51C1305.52 117.781 1305.74 118 1306 118C1306.26 118 1306.48 117.781 1306.48 117.51V112.159H1309.19C1309.36 112.159 1309.52 112.062 1309.61 111.906C1309.69 111.75 1309.69 111.559 1309.59 111.408L1306.41 106.228C1306.32 106.086 1306.17 106 1306 106C1305.84 106 1305.68 106.086 1305.6 106.228L1302.41 111.408C1302.36 111.488 1302.33 111.579 1302.33 111.669C1302.33 111.75 1302.35 111.832 1302.39 111.906Z" fill="white"/>
<path d="M1319.44 117.192C1318.7 117.192 1318.04 117.064 1317.44 116.808C1316.84 116.541 1316.36 116.136 1316 115.592C1315.64 115.048 1315.44 114.365 1315.42 113.544H1317.44C1317.45 114.088 1317.63 114.547 1317.97 114.92C1318.32 115.283 1318.81 115.464 1319.44 115.464C1320.04 115.464 1320.5 115.299 1320.82 114.968C1321.14 114.637 1321.3 114.221 1321.3 113.72C1321.3 113.133 1321.08 112.691 1320.66 112.392C1320.24 112.083 1319.7 111.928 1319.04 111.928H1318.21V110.248H1319.06C1319.6 110.248 1320.05 110.12 1320.42 109.864C1320.78 109.608 1320.96 109.229 1320.96 108.728C1320.96 108.312 1320.82 107.981 1320.54 107.736C1320.28 107.48 1319.9 107.352 1319.42 107.352C1318.9 107.352 1318.49 107.507 1318.19 107.816C1317.9 108.125 1317.74 108.504 1317.71 108.952H1315.71C1315.75 107.917 1316.11 107.101 1316.78 106.504C1317.47 105.907 1318.35 105.608 1319.42 105.608C1320.19 105.608 1320.84 105.747 1321.36 106.024C1321.89 106.291 1322.29 106.648 1322.56 107.096C1322.84 107.544 1322.98 108.04 1322.98 108.584C1322.98 109.213 1322.8 109.747 1322.45 110.184C1322.11 110.611 1321.68 110.899 1321.17 111.048C1321.8 111.176 1322.31 111.485 1322.7 111.976C1323.1 112.456 1323.3 113.064 1323.3 113.8C1323.3 114.419 1323.15 114.984 1322.85 115.496C1322.55 116.008 1322.11 116.419 1321.54 116.728C1320.97 117.037 1320.27 117.192 1319.44 117.192ZM1326.14 117.112C1325.77 117.112 1325.46 116.995 1325.21 116.76C1324.98 116.525 1324.86 116.243 1324.86 115.912C1324.86 115.571 1324.98 115.283 1325.21 115.048C1325.46 114.813 1325.77 114.696 1326.14 114.696C1326.51 114.696 1326.82 114.813 1327.05 115.048C1327.3 115.283 1327.42 115.571 1327.42 115.912C1327.42 116.243 1327.3 116.525 1327.05 116.76C1326.82 116.995 1326.51 117.112 1326.14 117.112ZM1328.88 117V115.512C1329.56 114.947 1330.22 114.387 1330.86 113.832C1331.51 113.277 1332.09 112.728 1332.59 112.184C1333.1 111.64 1333.51 111.112 1333.81 110.6C1334.12 110.077 1334.27 109.571 1334.27 109.08C1334.27 108.621 1334.14 108.216 1333.89 107.864C1333.64 107.512 1333.23 107.336 1332.65 107.336C1332.07 107.336 1331.63 107.528 1331.33 107.912C1331.03 108.296 1330.88 108.76 1330.88 109.304H1328.89C1328.92 108.483 1329.1 107.8 1329.44 107.256C1329.78 106.701 1330.23 106.291 1330.8 106.024C1331.36 105.747 1332 105.608 1332.7 105.608C1333.84 105.608 1334.73 105.923 1335.36 106.552C1336 107.171 1336.32 107.976 1336.32 108.968C1336.32 109.587 1336.17 110.189 1335.89 110.776C1335.61 111.363 1335.24 111.928 1334.78 112.472C1334.32 113.016 1333.83 113.528 1333.29 114.008C1332.76 114.477 1332.24 114.915 1331.74 115.32H1336.59V117H1328.88ZM1343.27 117V114.92H1337.75V113.288L1343 105.8H1345.32V113.144H1346.79V114.92H1345.32V117H1343.27ZM1339.94 113.144H1343.4V108.056L1339.94 113.144ZM1350.44 111.304C1349.93 111.304 1349.46 111.192 1349.05 110.968C1348.63 110.733 1348.3 110.403 1348.05 109.976C1347.81 109.549 1347.69 109.043 1347.69 108.456C1347.69 107.869 1347.81 107.363 1348.05 106.936C1348.3 106.509 1348.63 106.184 1349.05 105.96C1349.46 105.725 1349.93 105.608 1350.45 105.608C1350.97 105.608 1351.43 105.725 1351.83 105.96C1352.25 106.184 1352.58 106.509 1352.82 106.936C1353.07 107.363 1353.19 107.869 1353.19 108.456C1353.19 109.043 1353.07 109.549 1352.82 109.976C1352.58 110.403 1352.25 110.733 1351.83 110.968C1351.41 111.192 1350.95 111.304 1350.44 111.304ZM1349.83 117L1356.15 105.8H1358.15L1351.83 117H1349.83ZM1350.44 109.88C1350.75 109.88 1351.01 109.763 1351.24 109.528C1351.46 109.283 1351.57 108.925 1351.57 108.456C1351.57 107.987 1351.46 107.629 1351.24 107.384C1351.03 107.139 1350.76 107.016 1350.44 107.016C1350.12 107.016 1349.85 107.139 1349.62 107.384C1349.41 107.629 1349.3 107.987 1349.3 108.456C1349.3 108.925 1349.41 109.283 1349.62 109.528C1349.85 109.763 1350.12 109.88 1350.44 109.88ZM1357.61 117.192C1357.09 117.192 1356.63 117.08 1356.21 116.856C1355.8 116.621 1355.47 116.291 1355.22 115.864C1354.98 115.437 1354.85 114.931 1354.85 114.344C1354.85 113.757 1354.98 113.256 1355.22 112.84C1355.47 112.413 1355.8 112.088 1356.21 111.864C1356.63 111.629 1357.1 111.512 1357.62 111.512C1358.13 111.512 1358.59 111.629 1359 111.864C1359.41 112.088 1359.75 112.413 1359.99 112.84C1360.24 113.256 1360.36 113.757 1360.36 114.344C1360.36 114.931 1360.24 115.437 1359.99 115.864C1359.75 116.291 1359.41 116.621 1359 116.856C1358.59 117.08 1358.13 117.192 1357.61 117.192ZM1357.61 115.768C1357.93 115.768 1358.19 115.651 1358.41 115.416C1358.63 115.171 1358.74 114.813 1358.74 114.344C1358.74 113.875 1358.63 113.517 1358.41 113.272C1358.19 113.027 1357.93 112.904 1357.61 112.904C1357.29 112.904 1357.01 113.027 1356.79 113.272C1356.58 113.517 1356.47 113.875 1356.47 114.344C1356.47 114.813 1356.58 115.171 1356.79 115.416C1357.01 115.651 1357.29 115.768 1357.61 115.768Z" fill="white"/>
<path d="M1334.54 174V161.4H1339.6C1340.91 161.4 1341.9 161.706 1342.59 162.318C1343.28 162.918 1343.63 163.692 1343.63 164.64C1343.63 165.432 1343.41 166.068 1342.98 166.548C1342.56 167.016 1342.05 167.334 1341.43 167.502C1342.15 167.646 1342.75 168.006 1343.22 168.582C1343.68 169.146 1343.92 169.806 1343.92 170.562C1343.92 171.558 1343.56 172.38 1342.84 173.028C1342.12 173.676 1341.1 174 1339.78 174H1334.54ZM1336.84 166.692H1339.26C1339.9 166.692 1340.4 166.542 1340.75 166.242C1341.1 165.942 1341.27 165.516 1341.27 164.964C1341.27 164.436 1341.1 164.022 1340.75 163.722C1340.41 163.41 1339.9 163.254 1339.22 163.254H1336.84V166.692ZM1336.84 172.128H1339.42C1340.1 172.128 1340.63 171.972 1341 171.66C1341.39 171.336 1341.58 170.886 1341.58 170.31C1341.58 169.722 1341.38 169.26 1340.98 168.924C1340.59 168.588 1340.05 168.42 1339.38 168.42H1336.84V172.128ZM1345.9 174V161.4H1348.2L1354.12 170.274V161.4H1356.43V174H1354.12L1348.2 165.144V174H1345.9ZM1358.87 174V161.4H1363.93C1365.23 161.4 1366.23 161.706 1366.91 162.318C1367.61 162.918 1367.96 163.692 1367.96 164.64C1367.96 165.432 1367.74 166.068 1367.31 166.548C1366.89 167.016 1366.37 167.334 1365.76 167.502C1366.48 167.646 1367.08 168.006 1367.54 168.582C1368.01 169.146 1368.25 169.806 1368.25 170.562C1368.25 171.558 1367.89 172.38 1367.17 173.028C1366.45 173.676 1365.43 174 1364.11 174H1358.87ZM1361.17 166.692H1363.58C1364.23 166.692 1364.73 166.542 1365.08 166.242C1365.43 165.942 1365.6 165.516 1365.6 164.964C1365.6 164.436 1365.43 164.022 1365.08 163.722C1364.74 163.41 1364.23 163.254 1363.55 163.254H1361.17V166.692ZM1361.17 172.128H1363.75C1364.43 172.128 1364.96 171.972 1365.33 171.66C1365.71 171.336 1365.91 170.886 1365.91 170.31C1365.91 169.722 1365.71 169.26 1365.31 168.924C1364.92 168.588 1364.38 168.42 1363.71 168.42H1361.17V172.128Z" fill="#777E90"/>
<path d="M1113.11 176.288C1111.88 176.288 1110.77 176.048 1109.78 175.568C1108.78 175.072 1107.99 174.328 1107.4 173.336C1106.82 172.344 1106.54 171.088 1106.54 169.568V159.2H1109.61V169.592C1109.61 170.904 1109.92 171.88 1110.54 172.52C1111.18 173.16 1112.06 173.48 1113.18 173.48C1114.29 173.48 1115.16 173.16 1115.8 172.52C1116.44 171.88 1116.76 170.904 1116.76 169.592V159.2H1119.83V169.568C1119.83 171.088 1119.53 172.344 1118.92 173.336C1118.31 174.328 1117.5 175.072 1116.47 175.568C1115.46 176.048 1114.34 176.288 1113.11 176.288ZM1128.46 176.288C1127.23 176.288 1126.14 176.08 1125.2 175.664C1124.26 175.232 1123.51 174.624 1122.97 173.84C1122.42 173.04 1122.14 172.072 1122.13 170.936H1125.37C1125.4 171.72 1125.68 172.384 1126.21 172.928C1126.75 173.456 1127.5 173.72 1128.44 173.72C1129.26 173.72 1129.9 173.528 1130.38 173.144C1130.86 172.744 1131.1 172.216 1131.1 171.56C1131.1 170.872 1130.89 170.336 1130.46 169.952C1130.04 169.568 1129.48 169.256 1128.78 169.016C1128.07 168.776 1127.32 168.52 1126.52 168.248C1125.22 167.8 1124.23 167.224 1123.54 166.52C1122.87 165.816 1122.54 164.88 1122.54 163.712C1122.52 162.72 1122.75 161.872 1123.23 161.168C1123.73 160.448 1124.4 159.896 1125.25 159.512C1126.1 159.112 1127.07 158.912 1128.18 158.912C1129.3 158.912 1130.28 159.112 1131.13 159.512C1131.99 159.912 1132.66 160.472 1133.14 161.192C1133.64 161.912 1133.9 162.768 1133.94 163.76H1130.65C1130.63 163.168 1130.4 162.648 1129.95 162.2C1129.52 161.736 1128.91 161.504 1128.13 161.504C1127.46 161.488 1126.89 161.656 1126.42 162.008C1125.98 162.344 1125.75 162.84 1125.75 163.496C1125.75 164.056 1125.93 164.504 1126.28 164.84C1126.63 165.16 1127.11 165.432 1127.72 165.656C1128.33 165.88 1129.02 166.12 1129.81 166.376C1130.64 166.664 1131.4 167 1132.09 167.384C1132.78 167.768 1133.33 168.28 1133.74 168.92C1134.16 169.544 1134.37 170.352 1134.37 171.344C1134.37 172.224 1134.14 173.04 1133.7 173.792C1133.25 174.544 1132.58 175.152 1131.7 175.616C1130.82 176.064 1129.74 176.288 1128.46 176.288ZM1136.81 176V159.2H1142.54C1144.51 159.2 1146.13 159.552 1147.39 160.256C1148.67 160.944 1149.62 161.92 1150.22 163.184C1150.85 164.432 1151.16 165.904 1151.16 167.6C1151.16 169.296 1150.85 170.776 1150.22 172.04C1149.62 173.288 1148.67 174.264 1147.39 174.968C1146.13 175.656 1144.51 176 1142.54 176H1136.81ZM1139.88 173.36H1142.4C1143.81 173.36 1144.92 173.136 1145.74 172.688C1146.55 172.224 1147.14 171.568 1147.49 170.72C1147.84 169.856 1148.02 168.816 1148.02 167.6C1148.02 166.4 1147.84 165.368 1147.49 164.504C1147.14 163.64 1146.55 162.976 1145.74 162.512C1144.92 162.048 1143.81 161.816 1142.4 161.816H1139.88V173.36ZM1165.13 176.288C1163.9 176.288 1162.84 176.072 1161.94 175.64C1161.06 175.208 1160.37 174.616 1159.85 173.864C1159.36 173.096 1159.07 172.232 1158.99 171.272H1161.99C1162.13 171.96 1162.49 172.536 1163.05 173C1163.61 173.448 1164.3 173.672 1165.13 173.672C1166.03 173.672 1166.76 173.344 1167.32 172.688C1167.89 172.032 1168.18 171.216 1168.18 170.24C1168.18 169.232 1167.89 168.432 1167.32 167.84C1166.76 167.248 1166.05 166.952 1165.18 166.952C1164.46 166.952 1163.84 167.128 1163.31 167.48C1162.78 167.832 1162.41 168.272 1162.18 168.8H1159.23L1160.67 159.2H1169.98V161.888H1162.97L1162.21 165.776C1162.56 165.392 1163.04 165.08 1163.65 164.84C1164.25 164.584 1164.93 164.456 1165.69 164.456C1166.89 164.456 1167.89 164.728 1168.69 165.272C1169.49 165.8 1170.09 166.504 1170.51 167.384C1170.93 168.248 1171.13 169.192 1171.13 170.216C1171.13 171.384 1170.88 172.424 1170.37 173.336C1169.87 174.248 1169.17 174.968 1168.25 175.496C1167.36 176.024 1166.32 176.288 1165.13 176.288ZM1173.13 176V173.768C1174.16 172.92 1175.15 172.08 1176.11 171.248C1177.09 170.416 1177.95 169.592 1178.7 168.776C1179.47 167.96 1180.08 167.168 1180.53 166.4C1180.99 165.616 1181.22 164.856 1181.22 164.12C1181.22 163.432 1181.03 162.824 1180.65 162.296C1180.28 161.768 1179.66 161.504 1178.8 161.504C1177.92 161.504 1177.25 161.792 1176.81 162.368C1176.36 162.944 1176.13 163.64 1176.13 164.456H1173.16C1173.19 163.224 1173.46 162.2 1173.97 161.384C1174.49 160.552 1175.17 159.936 1176.01 159.536C1176.86 159.12 1177.81 158.912 1178.87 158.912C1180.58 158.912 1181.91 159.384 1182.85 160.328C1183.81 161.256 1184.29 162.464 1184.29 163.952C1184.29 164.88 1184.08 165.784 1183.65 166.664C1183.23 167.544 1182.68 168.392 1181.99 169.208C1181.3 170.024 1180.56 170.792 1179.76 171.512C1178.96 172.216 1178.18 172.872 1177.43 173.48H1184.7V176H1173.13ZM1192.51 176.288C1191.4 176.288 1190.4 176.096 1189.51 175.712C1188.61 175.312 1187.89 174.704 1187.35 173.888C1186.8 173.072 1186.52 172.048 1186.48 170.816H1189.51C1189.52 171.632 1189.79 172.32 1190.3 172.88C1190.83 173.424 1191.56 173.696 1192.51 173.696C1193.4 173.696 1194.09 173.448 1194.57 172.952C1195.05 172.456 1195.29 171.832 1195.29 171.08C1195.29 170.2 1194.97 169.536 1194.33 169.088C1193.71 168.624 1192.9 168.392 1191.91 168.392H1190.66V165.872H1191.93C1192.75 165.872 1193.43 165.68 1193.97 165.296C1194.52 164.912 1194.79 164.344 1194.79 163.592C1194.79 162.968 1194.58 162.472 1194.16 162.104C1193.76 161.72 1193.2 161.528 1192.48 161.528C1191.7 161.528 1191.08 161.76 1190.64 162.224C1190.2 162.688 1189.96 163.256 1189.92 163.928H1186.92C1186.98 162.376 1187.52 161.152 1188.52 160.256C1189.55 159.36 1190.87 158.912 1192.48 158.912C1193.64 158.912 1194.6 159.12 1195.39 159.536C1196.19 159.936 1196.79 160.472 1197.19 161.144C1197.6 161.816 1197.81 162.56 1197.81 163.376C1197.81 164.32 1197.55 165.12 1197.02 165.776C1196.51 166.416 1195.87 166.848 1195.1 167.072C1196.04 167.264 1196.81 167.728 1197.4 168.464C1198 169.184 1198.29 170.096 1198.29 171.2C1198.29 172.128 1198.07 172.976 1197.62 173.744C1197.17 174.512 1196.52 175.128 1195.65 175.592C1194.8 176.056 1193.76 176.288 1192.51 176.288ZM1202.32 176.168C1201.76 176.168 1201.29 175.992 1200.93 175.64C1200.57 175.288 1200.4 174.864 1200.4 174.368C1200.4 173.856 1200.57 173.424 1200.93 173.072C1201.29 172.72 1201.76 172.544 1202.32 172.544C1202.88 172.544 1203.33 172.72 1203.69 173.072C1204.05 173.424 1204.24 173.856 1204.24 174.368C1204.24 174.864 1204.05 175.288 1203.69 175.64C1203.33 175.992 1202.88 176.168 1202.32 176.168ZM1206.19 176V173.768C1207.21 172.92 1208.2 172.08 1209.16 171.248C1210.14 170.416 1211 169.592 1211.75 168.776C1212.52 167.96 1213.13 167.168 1213.58 166.4C1214.04 165.616 1214.27 164.856 1214.27 164.12C1214.27 163.432 1214.08 162.824 1213.7 162.296C1213.33 161.768 1212.71 161.504 1211.85 161.504C1210.97 161.504 1210.31 161.792 1209.86 162.368C1209.41 162.944 1209.19 163.64 1209.19 164.456H1206.21C1206.24 163.224 1206.51 162.2 1207.03 161.384C1207.54 160.552 1208.22 159.936 1209.07 159.536C1209.91 159.12 1210.87 158.912 1211.92 158.912C1213.63 158.912 1214.96 159.384 1215.91 160.328C1216.87 161.256 1217.35 162.464 1217.35 163.952C1217.35 164.88 1217.13 165.784 1216.7 166.664C1216.28 167.544 1215.73 168.392 1215.04 169.208C1214.35 170.024 1213.61 170.792 1212.81 171.512C1212.01 172.216 1211.23 172.872 1210.48 173.48H1217.75V176H1206.19ZM1226.84 176.288C1225.28 176.288 1223.96 175.928 1222.85 175.208C1221.75 174.472 1220.89 173.456 1220.28 172.16C1219.69 170.848 1219.4 169.328 1219.4 167.6C1219.4 165.888 1219.69 164.376 1220.28 163.064C1220.89 161.752 1221.75 160.736 1222.85 160.016C1223.96 159.28 1225.28 158.912 1226.84 158.912C1228.39 158.912 1229.72 159.28 1230.82 160.016C1231.92 160.736 1232.77 161.752 1233.36 163.064C1233.97 164.376 1234.28 165.888 1234.28 167.6C1234.28 169.328 1233.97 170.848 1233.36 172.16C1232.77 173.456 1231.92 174.472 1230.82 175.208C1229.72 175.928 1228.39 176.288 1226.84 176.288ZM1226.84 173.528C1228.1 173.528 1229.13 173 1229.93 171.944C1230.73 170.888 1231.13 169.44 1231.13 167.6C1231.13 165.76 1230.73 164.312 1229.93 163.256C1229.13 162.2 1228.1 161.672 1226.84 161.672C1225.56 161.672 1224.52 162.2 1223.72 163.256C1222.93 164.312 1222.54 165.76 1222.54 167.6C1222.54 169.44 1222.93 170.888 1223.72 171.944C1224.52 173 1225.56 173.528 1226.84 173.528Z" fill="white"/>
<path d="M1105.95 137V127.2H1109.89C1110.9 127.2 1111.68 127.438 1112.21 127.914C1112.75 128.381 1113.02 128.983 1113.02 129.72C1113.02 130.336 1112.85 130.831 1112.52 131.204C1112.19 131.568 1111.79 131.815 1111.31 131.946C1111.87 132.058 1112.34 132.338 1112.7 132.786C1113.06 133.225 1113.25 133.738 1113.25 134.326C1113.25 135.101 1112.97 135.74 1112.41 136.244C1111.85 136.748 1111.05 137 1110.03 137H1105.95ZM1107.74 131.316H1109.62C1110.12 131.316 1110.51 131.199 1110.78 130.966C1111.05 130.733 1111.19 130.401 1111.19 129.972C1111.19 129.561 1111.05 129.239 1110.78 129.006C1110.52 128.763 1110.12 128.642 1109.59 128.642H1107.74V131.316ZM1107.74 135.544H1109.75C1110.28 135.544 1110.69 135.423 1110.98 135.18C1111.28 134.928 1111.43 134.578 1111.43 134.13C1111.43 133.673 1111.27 133.313 1110.96 133.052C1110.66 132.791 1110.24 132.66 1109.72 132.66H1107.74V135.544ZM1115.71 128.978C1115.38 128.978 1115.11 128.88 1114.9 128.684C1114.69 128.488 1114.59 128.241 1114.59 127.942C1114.59 127.643 1114.69 127.401 1114.9 127.214C1115.11 127.018 1115.38 126.92 1115.71 126.92C1116.03 126.92 1116.3 127.018 1116.51 127.214C1116.72 127.401 1116.83 127.643 1116.83 127.942C1116.83 128.241 1116.72 128.488 1116.51 128.684C1116.3 128.88 1116.03 128.978 1115.71 128.978ZM1114.81 137V130.056H1116.6V137H1114.81ZM1118.47 137V130.056H1120.06L1120.2 131.232C1120.41 130.821 1120.72 130.495 1121.12 130.252C1121.53 130.009 1122.01 129.888 1122.56 129.888C1123.42 129.888 1124.09 130.159 1124.56 130.7C1125.04 131.241 1125.28 132.035 1125.28 133.08V137H1123.49V133.248C1123.49 132.651 1123.37 132.193 1123.12 131.876C1122.88 131.559 1122.5 131.4 1121.99 131.4C1121.48 131.4 1121.07 131.577 1120.74 131.932C1120.43 132.287 1120.27 132.781 1120.27 133.416V137H1118.47ZM1129.39 137.168C1128.79 137.168 1128.3 137.075 1127.92 136.888C1127.53 136.692 1127.25 136.435 1127.06 136.118C1126.88 135.801 1126.78 135.451 1126.78 135.068C1126.78 134.424 1127.03 133.901 1127.54 133.5C1128.04 133.099 1128.8 132.898 1129.81 132.898H1131.57V132.73C1131.57 132.254 1131.43 131.904 1131.16 131.68C1130.89 131.456 1130.56 131.344 1130.16 131.344C1129.79 131.344 1129.47 131.433 1129.2 131.61C1128.93 131.778 1128.77 132.03 1128.7 132.366H1126.95C1127 131.862 1127.16 131.423 1127.45 131.05C1127.75 130.677 1128.14 130.392 1128.6 130.196C1129.07 129.991 1129.59 129.888 1130.17 129.888C1131.16 129.888 1131.94 130.135 1132.51 130.63C1133.08 131.125 1133.36 131.825 1133.36 132.73V137H1131.84L1131.67 135.88C1131.46 136.253 1131.17 136.561 1130.8 136.804C1130.44 137.047 1129.96 137.168 1129.39 137.168ZM1129.79 135.768C1130.31 135.768 1130.7 135.6 1130.98 135.264C1131.27 134.928 1131.45 134.513 1131.53 134.018H1130C1129.53 134.018 1129.19 134.107 1128.98 134.284C1128.77 134.452 1128.67 134.662 1128.67 134.914C1128.67 135.185 1128.77 135.395 1128.98 135.544C1129.19 135.693 1129.46 135.768 1129.79 135.768ZM1135.07 137V130.056H1136.65L1136.79 131.232C1137.01 130.821 1137.32 130.495 1137.72 130.252C1138.13 130.009 1138.61 129.888 1139.16 129.888C1140.02 129.888 1140.69 130.159 1141.16 130.7C1141.64 131.241 1141.88 132.035 1141.88 133.08V137H1140.08V133.248C1140.08 132.651 1139.96 132.193 1139.72 131.876C1139.48 131.559 1139.1 131.4 1138.59 131.4C1138.08 131.4 1137.67 131.577 1137.34 131.932C1137.02 132.287 1136.86 132.781 1136.86 133.416V137H1135.07ZM1146.99 137.168C1146.28 137.168 1145.66 137.014 1145.12 136.706C1144.57 136.398 1144.15 135.969 1143.83 135.418C1143.52 134.867 1143.37 134.237 1143.37 133.528C1143.37 132.819 1143.52 132.189 1143.83 131.638C1144.15 131.087 1144.57 130.658 1145.12 130.35C1145.66 130.042 1146.28 129.888 1146.99 129.888C1147.88 129.888 1148.63 130.121 1149.23 130.588C1149.84 131.045 1150.23 131.68 1150.39 132.492H1148.5C1148.41 132.156 1148.22 131.895 1147.94 131.708C1147.67 131.512 1147.35 131.414 1146.98 131.414C1146.48 131.414 1146.06 131.601 1145.72 131.974C1145.37 132.347 1145.2 132.865 1145.2 133.528C1145.2 134.191 1145.37 134.709 1145.72 135.082C1146.06 135.455 1146.48 135.642 1146.98 135.642C1147.35 135.642 1147.67 135.549 1147.94 135.362C1148.22 135.175 1148.41 134.909 1148.5 134.564H1150.39C1150.23 135.348 1149.84 135.978 1149.23 136.454C1148.63 136.93 1147.88 137.168 1146.99 137.168ZM1155.36 137.168C1154.66 137.168 1154.04 137.019 1153.5 136.72C1152.95 136.421 1152.53 136.001 1152.22 135.46C1151.91 134.919 1151.76 134.293 1151.76 133.584C1151.76 132.865 1151.91 132.226 1152.21 131.666C1152.52 131.106 1152.94 130.672 1153.47 130.364C1154.01 130.047 1154.64 129.888 1155.37 129.888C1156.05 129.888 1156.66 130.037 1157.18 130.336C1157.7 130.635 1158.11 131.045 1158.4 131.568C1158.69 132.081 1158.84 132.655 1158.84 133.29C1158.84 133.393 1158.84 133.5 1158.83 133.612C1158.83 133.724 1158.83 133.841 1158.82 133.962H1153.54C1153.58 134.503 1153.76 134.928 1154.1 135.236C1154.44 135.544 1154.86 135.698 1155.34 135.698C1155.71 135.698 1156.01 135.619 1156.25 135.46C1156.51 135.292 1156.69 135.077 1156.81 134.816H1158.63C1158.5 135.255 1158.28 135.656 1157.98 136.02C1157.68 136.375 1157.3 136.655 1156.86 136.86C1156.42 137.065 1155.92 137.168 1155.36 137.168ZM1155.37 131.344C1154.93 131.344 1154.55 131.47 1154.21 131.722C1153.87 131.965 1153.66 132.338 1153.57 132.842H1157.02C1157 132.385 1156.83 132.021 1156.52 131.75C1156.21 131.479 1155.83 131.344 1155.37 131.344Z" fill="white"/>
<path d="M1127 98.1663C1138.12 98.1663 1147.17 89.1197 1147.17 77.9996C1146.06 51.2458 1107.94 51.2531 1106.83 77.9996C1106.83 89.1197 1115.88 98.1663 1127 98.1663Z" fill="#EED671"/>
<path d="M1126.35 74.6023C1122.33 78.764 1122.33 77.2395 1126.35 81.3975C1126.71 81.7559 1127.29 81.7559 1127.65 81.3975L1130.4 78.6485C1130.75 78.3075 1130.76 77.6933 1130.4 77.3523L1127.65 74.6023C1127.29 74.2439 1126.71 74.2439 1126.35 74.6023Z" fill="#F7F7F7"/>
<path d="M1120.85 76.815C1121.2 77.1587 1121.81 77.1587 1122.15 76.815L1127 71.9631L1131.85 76.815C1132.19 77.1697 1132.81 77.1707 1133.15 76.815L1135.9 74.065C1136.26 73.7066 1136.26 73.1272 1135.9 72.7688L1127.65 64.5188C1127.29 64.1604 1126.71 64.1604 1126.35 64.5188L1118.1 72.7688C1117.74 73.1272 1117.74 73.7066 1118.1 74.065L1120.85 76.815Z" fill="#F7F7F7"/>
<path d="M1140.48 77.3513C1136.32 73.3308 1137.85 73.3335 1133.69 77.3513C1133.33 77.6923 1133.33 78.3064 1133.69 78.6474L1136.44 81.3974C1136.79 81.7558 1137.37 81.7558 1137.73 81.3974L1140.48 78.6474C1140.84 78.3064 1140.84 77.6923 1140.48 77.3513Z" fill="#F7F7F7"/>
<path d="M1113.52 77.3513C1117.68 73.3308 1116.16 73.3335 1120.32 77.3513C1120.67 77.6923 1120.67 78.3064 1120.32 78.6474L1117.57 81.3974C1117.21 81.7558 1116.63 81.7558 1116.27 81.3974L1113.52 78.6474C1113.17 78.3064 1113.16 77.6923 1113.52 77.3513Z" fill="#F7F7F7"/>
<path d="M1133.15 79.1849C1132.81 78.8411 1132.2 78.8411 1131.85 79.1849L1127 84.0368L1122.15 79.1849C1121.81 78.8301 1121.2 78.8292 1120.85 79.1849L1118.1 81.9349C1117.75 82.2933 1117.75 82.8726 1118.1 83.231L1126.35 91.481C1126.71 91.8394 1127.29 91.8394 1127.65 91.481L1135.9 83.231C1136.26 82.8726 1136.26 82.2933 1135.9 81.9349L1133.15 79.1849Z" fill="#F7F7F7"/>
<path d="M1251 93.5422H1254.42C1254.89 93.5422 1255.34 93.3349 1255.64 92.9755L1262.43 84.9491C1262.49 84.8787 1262.55 84.8034 1262.59 84.7239L1267.5 76.3445C1267.96 75.5512 1269 75.3113 1269.76 75.8196L1279.76 82.4539C1280.39 82.8743 1281.23 82.791 1281.77 82.2547L1285.42 78.6225C1285.98 78.0625 1286.87 77.9995 1287.51 78.4743L1291.27 81.2846C1291.7 81.6031 1292.25 81.6886 1292.76 81.5128L1298.94 79.3494L1304.72 76.6983C1304.86 76.6347 1304.99 76.5516 1305.1 76.4515L1311.27 71.0956C1311.86 70.5765 1312.75 70.572 1313.35 71.085L1318.37 75.3535C1318.62 75.5702 1318.94 75.7017 1319.27 75.7296L1325.67 76.2655H1333.5C1334 76.2655 1334.47 76.0317 1334.77 75.6335L1341.26 67.0943C1341.32 67.0235 1341.38 66.9573 1341.44 66.8964L1351.16 57.7658C1352.02 56.953 1353.44 57.3317 1353.78 58.4676L1357.2 69.7461C1357.37 70.304 1357.83 70.7258 1358.4 70.847L1363.22 71.8699C1363.91 72.0176 1364.43 72.6065 1364.48 73.3154L1365.42 85.8421C1365.48 86.677 1366.18 87.3226 1367.01 87.3226H1369" stroke="#58BD7D" stroke-width="1.6" stroke-linecap="round" stroke-linejoin="round"/>
<path d="M1254.42 93.5422H1251L1367.39 93.9938C1368.28 93.9972 1369 93.2799 1369 92.3938V88.9226C1369 88.0389 1368.28 87.3226 1367.4 87.3226H1367.01C1366.18 87.3226 1365.48 86.677 1365.42 85.8421L1364.48 73.3154C1364.43 72.6065 1363.91 72.0176 1363.22 71.8699L1358.4 70.847C1357.83 70.7258 1357.37 70.304 1357.2 69.7461L1353.78 58.4676C1353.44 57.3317 1352.02 56.953 1351.16 57.7658L1341.44 66.8964C1341.38 66.9573 1341.32 67.0235 1341.26 67.0943L1334.77 75.6335C1334.47 76.0317 1334 76.2655 1333.5 76.2655H1325.67L1319.27 75.7296C1318.94 75.7017 1318.62 75.5702 1318.37 75.3535L1313.35 71.085C1312.75 70.572 1311.86 70.5765 1311.27 71.0956L1305.1 76.4515C1304.99 76.5516 1304.86 76.6347 1304.72 76.6983L1298.94 79.3494L1292.76 81.5128C1292.25 81.6886 1291.7 81.6031 1291.27 81.2846L1287.51 78.4743C1286.87 77.9995 1285.98 78.0625 1285.42 78.6225L1281.77 82.2547C1281.23 82.791 1280.39 82.8743 1279.76 82.4539L1269.76 75.8196C1269 75.3113 1267.96 75.5512 1267.5 76.3445L1262.59 84.7239C1262.55 84.8034 1262.49 84.8787 1262.43 84.9491L1255.64 92.9755C1255.34 93.3349 1254.89 93.5422 1254.42 93.5422Z" fill="url(#paint3_linear_2680_49209)"/>
</g>
<defs>
<filter id="filter0_d_2680_49209" x="0" y="0" width="1442" height="316" filterUnits="userSpaceOnUse" color-interpolation-filters="sRGB">
<feFlood flood-opacity="0" result="BackgroundImageFix"/>
<feColorMatrix in="SourceAlpha" type="matrix" values="0 0 0 0 0 0 0 0 0 0 0 0 0 0 0 0 0 0 127 0" result="hardAlpha"/>
<feMorphology radius="48" operator="erode" in="SourceAlpha" result="effect1_dropShadow_2680_49209"/>
<feOffset dy="64"/>
<feGaussianBlur stdDeviation="32"/>
<feColorMatrix type="matrix" values="0 0 0 0 0.0583333 0 0 0 0 0.0583333 0 0 0 0 0.0583333 0 0 0 0.1 0"/>
<feBlend mode="multiply" in2="BackgroundImageFix" result="effect1_dropShadow_2680_49209"/>
<feBlend mode="normal" in="SourceGraphic" in2="effect1_dropShadow_2680_49209" result="shape"/>
</filter>
<filter id="filter1_b_2680_49209" x="385" y="24" width="328" height="188" filterUnits="userSpaceOnUse" color-interpolation-filters="sRGB">
<feFlood flood-opacity="0" result="BackgroundImageFix"/>
<feGaussianBlur in="BackgroundImageFix" stdDeviation="2"/>
<feComposite in2="SourceAlpha" operator="in" result="effect1_backgroundBlur_2680_49209"/>
<feBlend mode="normal" in="SourceGraphic" in2="effect1_backgroundBlur_2680_49209" result="shape"/>
</filter>
<linearGradient id="paint0_linear_2680_49209" x1="278.694" y1="-12.7093" x2="277.971" y2="93.542" gradientUnits="userSpaceOnUse">
<stop stop-color="#45B36B"/>
<stop offset="1" stop-color="#45B36B" stop-opacity="0"/>
</linearGradient>
<linearGradient id="paint1_linear_2680_49209" x1="613.212" y1="2.92452" x2="613.592" y2="85.0019" gradientUnits="userSpaceOnUse">
<stop stop-color="#EF466F"/>
<stop offset="1" stop-color="#EF466F" stop-opacity="0"/>
</linearGradient>
<linearGradient id="paint2_linear_2680_49209" x1="966.694" y1="-12.7093" x2="965.971" y2="93.542" gradientUnits="userSpaceOnUse">
<stop stop-color="#45B36B"/>
<stop offset="1" stop-color="#45B36B" stop-opacity="0"/>
</linearGradient>
<linearGradient id="paint3_linear_2680_49209" x1="1310.69" y1="-12.7093" x2="1309.97" y2="93.542" gradientUnits="userSpaceOnUse">
<stop stop-color="#45B36B"/>
<stop offset="1" stop-color="#45B36B" stop-opacity="0"/>
</linearGradient>
<clipPath id="clip0_2680_49209">
<rect width="1410" height="236" fill="white" transform="translate(16)"/>
</clipPath>
<clipPath id="clip1_2680_49209">
<rect width="44" height="44" fill="white" transform="translate(73 56)"/>
</clipPath>
<clipPath id="clip2_2680_49209">
<rect width="44" height="44" fill="white" transform="translate(761 56)"/>
</clipPath>
</defs>
</svg>
